<?xml version="1.0" encoding="utf-8"?>
<!-- Generator: Adobe Illustrator 17.0.0, SVG Export Plug-In . SVG Version: 6.00 Build 0)  -->
<!DOCTYPE svg PUBLIC "-//W3C//DTD SVG 1.1//EN" "http://www.w3.org/Graphics/SVG/1.1/DTD/svg11.dtd">
<svg version="1.1" id="Layer_1" xmlns="http://www.w3.org/2000/svg" xmlns:xlink="http://www.w3.org/1999/xlink" x="0px" y="0px"
	 width="63px" height="25px" viewBox="0 0 63 25" enable-background="new 0 0 63 25" xml:space="preserve">
<g>
	<path fill="#293246" d="M48.092,23.432H7.087c-0.703-0.591-1.089-1.596-1.278-2.495h43.549
		C49.176,21.841,48.788,22.841,48.092,23.432z M30.138,16.7h-5.109c-0.392,0-0.714,0.322-0.714,0.717
		c0,0.392,0.323,0.718,0.714,0.718h5.109c0.396,0,0.714-0.325,0.714-0.718C30.852,17.022,30.534,16.7,30.138,16.7z M54.264,18.533
		c-0.206,0-0.399-0.052-0.591-0.083v0.108c0,0.048-0.039,4.875-3.132,4.875h-0.938c0.501-0.76,0.875-1.746,1.043-3.009
		c0.022-0.168-0.031-0.343-0.14-0.469c-0.112-0.125-0.28-0.202-0.448-0.202H5.113c-0.168,0-0.329,0.077-0.444,0.202
		c-0.108,0.126-0.161,0.297-0.14,0.469c0.16,1.252,0.514,2.25,1.008,3.009H4.634c-3.093,0-3.132-4.826-3.132-4.875V5.242h44.903
		c-0.035-0.195-0.077-0.388-0.081-0.591H1.502V3.916c0-1.064,0.864-1.924,1.924-1.924h1.995v0.441c0,0.322,0.266,0.591,0.588,0.591
		h10.894c0.329,0,0.595-0.266,0.595-0.591V1.991h4.046v0.441c0,0.322,0.266,0.591,0.591,0.591h10.89
		c0.325,0,0.591-0.266,0.591-0.591V1.991h4.049v0.441c0,0.322,0.266,0.591,0.595,0.591h8.392c0.171-0.399,0.395-0.784,0.728-1.113
		c0.028-0.029,0.066-0.046,0.094-0.073h-8.619V1.399c0-0.325-0.266-0.591-0.591-0.591h-5.232c-0.325,0-0.595,0.266-0.595,0.591
		v0.438h-9.704V1.399c0-0.325-0.266-0.591-0.591-0.591H16.91c-0.325,0-0.588,0.266-0.588,0.591v0.438H6.608V1.399
		c0-0.325-0.262-0.591-0.595-0.591H3.427c-1.715,0-3.108,1.393-3.108,3.108v14.642c0,2.096,0.899,6.061,4.312,6.061h45.907
		c3.412,0,4.311-3.964,4.311-6.061V18.45C54.657,18.481,54.468,18.533,54.264,18.533z"/>
	<path fill="#293246" d="M62.142,8.269h-1.865l1.134-1.133c0.21-0.214,0.21-0.546,0-0.76c-0.203-0.21-0.543-0.21-0.753,0l-1.897,1.9
		h-3.227l2.348-2.352h2.271c0.294,0,0.539-0.237,0.539-0.532c0-0.294-0.245-0.531-0.539-0.531h-1.203l1.221-1.222
		c0.21-0.213,0.21-0.546,0-0.755c-0.207-0.207-0.543-0.207-0.753,0l-1.211,1.225v-1.2c0-0.29-0.245-0.532-0.542-0.532
		c-0.29,0-0.532,0.245-0.532,0.532v2.257l-2.25,2.254V4.017l1.792-1.795c0.206-0.21,0.206-0.546,0-0.752
		c-0.207-0.211-0.546-0.211-0.753,0l-1.043,1.039V0.92c0-0.301-0.235-0.538-0.529-0.538c-0.018,0-0.035,0.006-0.053,0.01
		c-0.017-0.004-0.039-0.01-0.052-0.01c-0.295,0-0.532,0.237-0.532,0.538v1.589L52.676,1.47c-0.211-0.211-0.55-0.211-0.76,0
		c-0.203,0.206-0.203,0.546,0,0.752l1.799,1.795v3.402l-2.254-2.254V2.908c0-0.29-0.237-0.532-0.535-0.532
		c-0.295,0-0.532,0.245-0.532,0.532v1.2l-1.218-1.225c-0.202-0.207-0.542-0.207-0.748,0c-0.211,0.21-0.211,0.546,0,0.755
		l1.225,1.222h-1.211c-0.29,0-0.532,0.237-0.532,0.531c0,0.295,0.238,0.532,0.532,0.532h2.275l2.348,2.352h-3.226l-1.894-1.9
		c-0.21-0.21-0.546-0.21-0.755,0c-0.207,0.213-0.207,0.543,0,0.76l1.144,1.133H46.46c-0.294,0-0.535,0.245-0.535,0.536
		c0,0.294,0.237,0.532,0.535,0.532h1.872l-1.144,1.144c-0.207,0.213-0.207,0.549,0,0.76c0.105,0.105,0.241,0.158,0.378,0.158
		c0.14,0,0.272-0.053,0.377-0.158l1.894-1.904h3.226l-2.372,2.376h-2.271c-0.291,0-0.536,0.235-0.536,0.529
		c0,0.297,0.245,0.536,0.536,0.536h1.203l-1.249,1.249c-0.207,0.213-0.207,0.549,0,0.753c0.105,0.108,0.245,0.161,0.382,0.161
		c0.136,0,0.272-0.053,0.374-0.161l1.242-1.239v1.19c0,0.297,0.235,0.539,0.529,0.539c0.301,0,0.539-0.242,0.539-0.539v-2.257
		l2.278-2.282v3.048l-1.799,1.795c-0.203,0.203-0.203,0.543,0,0.76c0.108,0.098,0.245,0.151,0.382,0.151
		c0.133,0,0.27-0.053,0.378-0.151l1.039-1.046v1.946c0,0.294,0.237,0.531,0.532,0.531c0.013,0,0.035-0.006,0.052-0.01
		c0.018,0.004,0.035,0.01,0.053,0.01c0.294,0,0.529-0.237,0.529-0.531v-1.946l1.043,1.046c0.105,0.098,0.234,0.151,0.378,0.151
		c0.136,0,0.269-0.053,0.374-0.151c0.207-0.217,0.207-0.556,0-0.76l-1.792-1.795V10.19l2.278,2.282v2.257
		c0,0.297,0.238,0.539,0.532,0.539c0.294,0,0.532-0.242,0.532-0.539v-1.19l1.243,1.239c0.108,0.108,0.241,0.161,0.381,0.161
		c0.133,0,0.27-0.053,0.378-0.161c0.207-0.203,0.207-0.539,0-0.753l-1.252-1.249h1.208c0.294,0,0.535-0.235,0.535-0.536
		c0-0.294-0.237-0.529-0.535-0.529h-2.272l-2.376-2.376h3.227l1.897,1.904c0.101,0.105,0.234,0.158,0.378,0.158
		c0.14,0,0.272-0.053,0.374-0.158c0.21-0.207,0.21-0.546,0-0.76L60.28,9.337h1.865c0.297,0,0.536-0.238,0.536-0.532
		C62.681,8.514,62.443,8.269,62.142,8.269z"/>
</g>
</svg>
