<?xml version="1.0" encoding="utf-8"?>
<!-- Generator: Adobe Illustrator 17.0.0, SVG Export Plug-In . SVG Version: 6.00 Build 0)  -->
<!DOCTYPE svg PUBLIC "-//W3C//DTD SVG 1.1//EN" "http://www.w3.org/Graphics/SVG/1.1/DTD/svg11.dtd">
<svg version="1.1" id="Layer_1" xmlns="http://www.w3.org/2000/svg" xmlns:xlink="http://www.w3.org/1999/xlink" x="0px" y="0px"
	 width="36px" height="28px" viewBox="0 0 36 28" enable-background="new 0 0 36 28" xml:space="preserve">
<path fill="#293246" d="M19.569,27.52c-0.439-1.056-0.847-2.111-1.099-3.23c-0.341-1.497,0.054-2.881,0.572-4.275
	c0.357-0.949,0.654-1.875,0.758-2.888c0.108-1.088-0.264-1.52-0.957-2.267c-0.311-0.339-0.814,0.166-0.502,0.501
	c1.699,1.834-0.133,4.392-0.598,6.43c-0.464,2.024,0.38,4.085,1.143,5.916C19.056,28.127,19.744,27.944,19.569,27.52"/>
<path fill="#293246" d="M25.096,25.518c-0.364-0.881-0.703-1.746-0.821-2.698c-0.11-0.877,0.231-1.716,0.53-2.517
	c0.236-0.629,0.399-1.242,0.457-1.91c0.063-0.726-0.226-1.029-0.689-1.529c-0.313-0.338-0.815,0.168-0.502,0.503
	c1.137,1.225-0.243,3.156-0.479,4.535c-0.224,1.301,0.334,2.631,0.819,3.804C24.584,26.123,25.273,25.941,25.096,25.518"/>
<path fill="#293246" d="M13.24,25.518c-0.362-0.881-0.702-1.746-0.821-2.698c-0.11-0.877,0.229-1.716,0.53-2.517
	c0.234-0.629,0.397-1.242,0.455-1.91c0.063-0.726-0.222-1.029-0.686-1.529c-0.313-0.338-0.815,0.168-0.504,0.503
	c1.137,1.225-0.242,3.156-0.481,4.535c-0.224,1.301,0.334,2.631,0.821,3.804C12.727,26.123,13.415,25.941,13.24,25.518"/>
<path fill="#293246" d="M32.029,1.021c1.673,0,2.334,0.678,2.334,2.347v5.149c0,1.721-0.584,3.87-2.177,3.87H21.929
	c-0.667-1.423-1.853-1.771-3.123-1.771c-1.27,0-2.457,0.347-3.123,1.771H5.425c-1.717,0-3.786-2.243-3.786-3.87V3.367
	c0-1.511,1.986-2.364,3.786-2.364H31.99 M32.186,0.055H5.425c-2.332,0-5.211,0.979-5.211,3.312v5.149
	c0,2.333,2.878,4.818,5.211,4.818H16.43c0.305-0.948,1.255-1.77,2.376-1.77c1.122,0,2.07,0.822,2.378,1.77h11.003
	c2.332,0,3.599-2.486,3.599-4.818V3.367C35.786,1.034,34.519,0.055,32.186,0.055"/>
</svg>
