<?xml version="1.0" encoding="utf-8"?>
<!-- Generator: Adobe Illustrator 17.0.0, SVG Export Plug-In . SVG Version: 6.00 Build 0)  -->
<!DOCTYPE svg PUBLIC "-//W3C//DTD SVG 1.1//EN" "http://www.w3.org/Graphics/SVG/1.1/DTD/svg11.dtd">
<svg version="1.1" id="Layer_1" xmlns="http://www.w3.org/2000/svg" xmlns:xlink="http://www.w3.org/1999/xlink" x="0px" y="0px"
	 width="394px" height="34px" viewBox="0 0 394 34" enable-background="new 0 0 394 34" xml:space="preserve">
<g>
	<g>
		<path fill="#FFFFFF" d="M113.478,4.203c0.001-2.184-1.78-3.961-3.963-3.961h-0.001H53.189H4.357c-2.185,0-3.963,1.777-3.963,3.961
			v25.598c0,2.183,1.779,3.957,3.963,3.957h70.895h34.264c1.91,0,3.512-1.359,3.882-3.161c0.053-0.258,0.081-0.525,0.081-0.798
			V4.203z"/>
		<path fill="#010101" d="M25.644,16.824c-0.024-2.701,2.212-4.015,2.314-4.077c-1.267-1.846-3.229-2.099-3.919-2.119
			c-1.648-0.173-3.248,0.986-4.088,0.986c-0.856,0-2.15-0.969-3.544-0.941c-1.794,0.028-3.472,1.066-4.392,2.679
			c-1.899,3.288-0.483,8.12,1.337,10.777c0.91,1.302,1.974,2.755,3.366,2.703c1.362-0.055,1.871-0.868,3.514-0.868
			c1.629,0,2.106,0.868,3.526,0.835c1.462-0.022,2.382-1.307,3.26-2.621c1.052-1.49,1.474-2.961,1.491-3.037
			C28.477,21.131,25.673,20.061,25.644,16.824z"/>
		<path fill="#010101" d="M22.962,8.88c0.732-0.916,1.233-2.162,1.094-3.427c-1.06,0.047-2.386,0.733-3.149,1.63
			c-0.676,0.789-1.279,2.083-1.123,3.301C20.975,10.471,22.198,9.781,22.962,8.88z"/>
		<path fill="#010101" d="M45.371,26.646h-1.903l-1.043-3.276h-3.624l-0.993,3.276h-1.853l3.591-11.154h2.218L45.371,26.646z
			 M42.111,21.996l-0.943-2.912c-0.1-0.298-0.287-0.999-0.562-2.102h-0.034c-0.111,0.474-0.287,1.175-0.53,2.102l-0.927,2.912
			H42.111z"/>
		<path fill="#010101" d="M54.589,22.526c0,1.368-0.371,2.449-1.115,3.243c-0.665,0.706-1.493,1.059-2.479,1.059
			c-1.065,0-1.831-0.38-2.297-1.141v4.22h-1.787v-8.659c0-0.859-0.022-1.74-0.066-2.644h1.571l0.1,1.275h0.034
			c0.596-0.961,1.5-1.441,2.714-1.441c0.949,0,1.741,0.375,2.374,1.125C54.271,20.314,54.589,21.302,54.589,22.526z M52.768,22.591
			c0-0.782-0.176-1.428-0.53-1.936c-0.386-0.529-0.905-0.794-1.556-0.794c-0.441,0-0.841,0.147-1.199,0.439
			c-0.359,0.293-0.593,0.676-0.703,1.151c-0.055,0.221-0.083,0.401-0.083,0.543v1.342c0,0.584,0.18,1.077,0.538,1.481
			c0.359,0.402,0.825,0.604,1.398,0.604c0.673,0,1.197-0.26,1.571-0.778C52.581,24.125,52.768,23.441,52.768,22.591z"/>
		<path fill="#010101" d="M63.839,22.526c0,1.368-0.372,2.449-1.115,3.243c-0.666,0.706-1.493,1.059-2.48,1.059
			c-1.065,0-1.831-0.38-2.297-1.141v4.22h-1.787v-8.659c0-0.859-0.023-1.74-0.066-2.644h1.571l0.1,1.275H57.8
			c0.595-0.961,1.499-1.441,2.714-1.441c0.948,0,1.74,0.375,2.375,1.125C63.521,20.314,63.839,21.302,63.839,22.526z M62.018,22.591
			c0-0.782-0.177-1.428-0.53-1.936c-0.386-0.529-0.904-0.794-1.554-0.794c-0.441,0-0.841,0.147-1.201,0.439
			c-0.358,0.293-0.593,0.676-0.702,1.151c-0.055,0.221-0.084,0.401-0.084,0.543v1.342c0,0.584,0.18,1.077,0.538,1.481
			c0.359,0.401,0.824,0.604,1.4,0.604c0.674,0,1.197-0.26,1.571-0.778C61.83,24.125,62.018,23.441,62.018,22.591z"/>
		<path fill="#010101" d="M74.181,23.518c0,0.949-0.331,1.721-0.991,2.317c-0.726,0.651-1.739,0.976-3.038,0.976
			c-1.201,0-2.162-0.232-2.888-0.695l0.413-1.49c0.783,0.464,1.644,0.696,2.581,0.696c0.674,0,1.197-0.152,1.571-0.455
			c0.375-0.304,0.564-0.709,0.564-1.215c0-0.453-0.156-0.833-0.464-1.143c-0.309-0.308-0.821-0.596-1.539-0.859
			c-1.953-0.728-2.93-1.794-2.93-3.195c0-0.915,0.345-1.664,1.034-2.25c0.689-0.585,1.603-0.877,2.739-0.877
			c1.015,0,1.86,0.177,2.532,0.53l-0.448,1.457c-0.632-0.342-1.345-0.513-2.143-0.513c-0.63,0-1.125,0.155-1.479,0.464
			c-0.297,0.275-0.449,0.612-0.449,1.01c0,0.44,0.172,0.805,0.514,1.092c0.297,0.264,0.838,0.552,1.621,0.86
			c0.96,0.387,1.666,0.838,2.117,1.356C73.955,22.101,74.181,22.747,74.181,23.518z"/>
		<path fill="#010101" d="M80.105,19.944h-1.97v3.905c0,0.993,0.347,1.489,1.043,1.489c0.319,0,0.584-0.027,0.794-0.084l0.049,1.357
			c-0.352,0.132-0.815,0.198-1.389,0.198c-0.706,0-1.257-0.216-1.656-0.647c-0.397-0.43-0.596-1.152-0.596-2.168v-4.054h-1.173
			v-1.341h1.173v-1.473l1.755-0.53v2.002h1.97V19.944z"/>
		<path fill="#010101" d="M88.974,22.559c0,1.236-0.354,2.251-1.06,3.045c-0.738,0.817-1.72,1.224-2.945,1.224
			c-1.182,0-2.121-0.391-2.822-1.174c-0.701-0.783-1.051-1.77-1.051-2.961c0-1.247,0.363-2.267,1.084-3.061
			c0.723-0.794,1.697-1.192,2.921-1.192c1.18,0,2.128,0.393,2.846,1.175C88.632,20.375,88.974,21.356,88.974,22.559z M87.121,22.6
			c0-0.737-0.159-1.368-0.478-1.897c-0.375-0.638-0.912-0.958-1.606-0.958c-0.715,0-1.265,0.319-1.639,0.958
			c-0.321,0.529-0.48,1.172-0.48,1.931c0,0.737,0.159,1.371,0.48,1.898c0.386,0.639,0.925,0.958,1.624,0.958
			c0.683,0,1.218-0.327,1.606-0.974C86.956,23.975,87.121,23.338,87.121,22.6z"/>
		<path fill="#010101" d="M94.784,20.175c-0.177-0.033-0.366-0.049-0.563-0.049c-0.629,0-1.115,0.236-1.457,0.712
			c-0.297,0.419-0.446,0.949-0.446,1.588v4.22h-1.787v-5.51c0-0.926-0.017-1.771-0.052-2.532h1.556l0.065,1.539h0.05
			c0.189-0.529,0.486-0.955,0.893-1.274c0.399-0.288,0.828-0.431,1.292-0.431c0.165,0,0.314,0.012,0.447,0.033L94.784,20.175
			L94.784,20.175z"/>
		<path fill="#010101" d="M102.776,22.244c0,0.32-0.021,0.59-0.065,0.81h-5.36c0.02,0.795,0.28,1.403,0.778,1.822
			c0.452,0.374,1.036,0.561,1.753,0.561c0.794,0,1.518-0.125,2.169-0.38l0.28,1.24c-0.761,0.331-1.66,0.497-2.696,0.497
			c-1.247,0-2.226-0.367-2.938-1.099c-0.71-0.733-1.067-1.72-1.067-2.954c0-1.211,0.331-2.221,0.994-3.027
			c0.694-0.86,1.632-1.29,2.812-1.29c1.159,0,2.036,0.43,2.632,1.29C102.538,20.396,102.776,21.241,102.776,22.244z M101.072,21.781
			c0.012-0.53-0.105-0.987-0.347-1.373c-0.309-0.498-0.785-0.746-1.423-0.746c-0.584,0-1.06,0.242-1.422,0.728
			c-0.297,0.386-0.474,0.851-0.529,1.39L101.072,21.781L101.072,21.781z"/>
		<path fill="#010101" d="M41.249,11.501h-0.936l-0.512-1.61H38.02l-0.489,1.61H36.62l1.765-5.482h1.089L41.249,11.501z
			 M39.647,9.215l-0.463-1.432c-0.049-0.146-0.138-0.488-0.277-1.032H38.89c-0.057,0.235-0.138,0.577-0.261,1.032l-0.455,1.432
			H39.647z"/>
		<path fill="#010101" d="M45.663,7.548l-1.497,3.953h-0.854l-1.448-3.953h0.944l0.676,2.09c0.114,0.349,0.211,0.683,0.284,1h0.024
			c0.065-0.284,0.163-0.618,0.284-1l0.667-2.09H45.663z"/>
		<path fill="#010101" d="M48.849,11.501l-0.065-0.455h-0.024c-0.268,0.366-0.659,0.545-1.155,0.545
			c-0.708,0-1.212-0.496-1.212-1.163c0-0.976,0.846-1.48,2.31-1.48V8.874c0-0.521-0.277-0.781-0.821-0.781
			c-0.391,0-0.733,0.098-1.033,0.293L46.67,7.808c0.366-0.228,0.821-0.342,1.359-0.342c1.033,0,1.554,0.545,1.554,1.635v1.456
			c0,0.399,0.017,0.708,0.057,0.944L48.849,11.501L48.849,11.501z M48.727,9.532c-0.976,0-1.464,0.237-1.464,0.797
			c0,0.415,0.252,0.618,0.602,0.618c0.447,0,0.862-0.341,0.862-0.805V9.532z"/>
		<path fill="#010101" d="M51.539,6.897c-0.293,0-0.521-0.228-0.521-0.529c0-0.301,0.236-0.521,0.537-0.521
			c0.301,0,0.545,0.22,0.537,0.521C52.092,6.686,51.865,6.897,51.539,6.897z M51.995,11.501h-0.878V7.548h0.878V11.501z"/>
		<path fill="#010101" d="M54.434,11.501h-0.878V5.734h0.878V11.501z"/>
		<path fill="#010101" d="M58.166,11.501l-0.065-0.455h-0.024c-0.268,0.366-0.659,0.545-1.155,0.545
			c-0.707,0-1.212-0.496-1.212-1.163c0-0.976,0.845-1.48,2.31-1.48V8.874c0-0.521-0.277-0.781-0.821-0.781
			c-0.39,0-0.733,0.098-1.033,0.293l-0.179-0.578c0.366-0.228,0.821-0.342,1.359-0.342c1.032,0,1.554,0.545,1.554,1.635v1.456
			c0,0.399,0.017,0.708,0.056,0.944H58.166z M58.044,9.532c-0.976,0-1.464,0.237-1.464,0.797c0,0.415,0.252,0.618,0.602,0.618
			c0.448,0,0.863-0.341,0.863-0.805V9.532z"/>
		<path fill="#010101" d="M62.458,11.59c-0.561,0-0.975-0.237-1.243-0.7h-0.017l-0.05,0.61h-0.748
			c0.024-0.317,0.032-0.676,0.032-1.065V5.734h0.88v2.392h0.016c0.26-0.44,0.683-0.659,1.26-0.659c0.952,0,1.619,0.814,1.619,2
			C64.207,10.695,63.466,11.59,62.458,11.59z M62.279,8.157c-0.505,0-0.968,0.439-0.968,1.049v0.692
			c0,0.545,0.416,0.992,0.953,0.992c0.658,0,1.05-0.537,1.05-1.391C63.313,8.703,62.905,8.157,62.279,8.157z"/>
		<path fill="#010101" d="M66.384,11.501h-0.877V5.734h0.877V11.501z"/>
		<path fill="#010101" d="M71.165,9.736h-2.637c0.018,0.748,0.512,1.171,1.244,1.171c0.391,0,0.749-0.065,1.066-0.187l0.137,0.61
			c-0.374,0.163-0.813,0.244-1.325,0.244c-1.237,0-1.968-0.781-1.968-1.992c0-1.212,0.749-2.123,1.87-2.123
			c1.008,0,1.644,0.748,1.644,1.879C71.198,9.492,71.19,9.63,71.165,9.736z M70.36,9.109c0-0.61-0.309-1.041-0.871-1.041
			c-0.505,0-0.902,0.439-0.961,1.041H70.36z"/>
		<path fill="#010101" d="M76.489,11.59c-1.155,0-1.904-0.863-1.904-2.033c0-1.22,0.764-2.09,1.97-2.09
			c1.137,0,1.903,0.821,1.903,2.026C78.458,10.728,77.669,11.59,76.489,11.59z M76.522,8.108c-0.634,0-1.041,0.593-1.041,1.423
			c0,0.814,0.415,1.407,1.033,1.407c0.618,0,1.032-0.635,1.032-1.424C77.546,8.71,77.14,8.108,76.522,8.108z"/>
		<path fill="#010101" d="M83.181,11.501h-0.877v-2.27c0-0.699-0.268-1.049-0.797-1.049c-0.521,0-0.879,0.447-0.879,0.968v2.351
			H79.75V8.678c0-0.349-0.01-0.724-0.033-1.131h0.773l0.041,0.61h0.025c0.234-0.422,0.715-0.691,1.252-0.691
			c0.828,0,1.373,0.634,1.373,1.667V11.501L83.181,11.501z"/>
		<path fill="#010101" d="M88.927,8.207h-0.967v1.919c0,0.489,0.17,0.733,0.512,0.733c0.155,0,0.286-0.017,0.39-0.041l0.025,0.667
			c-0.171,0.065-0.399,0.098-0.683,0.098c-0.692,0-1.105-0.382-1.105-1.383V8.207h-0.576V7.548h0.576V6.824l0.861-0.261v0.984h0.967
			V8.207z"/>
		<path fill="#010101" d="M93.579,11.501H92.7V9.248c0-0.708-0.268-1.065-0.797-1.065c-0.455,0-0.877,0.309-0.877,0.935v2.383
			h-0.879V5.734h0.879v2.374h0.017c0.276-0.43,0.675-0.643,1.188-0.643c0.837,0,1.349,0.65,1.349,1.684V11.501z"/>
		<path fill="#010101" d="M98.067,9.736h-2.636c0.016,0.748,0.511,1.171,1.243,1.171c0.392,0,0.749-0.065,1.065-0.187l0.138,0.61
			c-0.373,0.163-0.814,0.244-1.326,0.244c-1.237,0-1.968-0.781-1.968-1.992c0-1.212,0.749-2.123,1.87-2.123
			c1.008,0,1.643,0.748,1.643,1.879C98.1,9.492,98.092,9.63,98.067,9.736z M97.262,9.109c0-0.61-0.309-1.041-0.87-1.041
			c-0.505,0-0.903,0.439-0.96,1.041H97.262z"/>
	</g>
	<g>
		<path fill="#FFFFFF" d="M252.771,4.203c0.001-2.184-1.78-3.961-3.963-3.961h-0.001h-56.325h-48.833
			c-2.185,0-3.963,1.777-3.963,3.961v25.598c0,2.183,1.779,3.957,3.963,3.957h70.895h34.264c1.91,0,3.512-1.359,3.882-3.161
			c0.053-0.258,0.081-0.525,0.081-0.798V4.203z M143.632,0.989c-0.199,0.001-0.394,0.021-0.583,0.057
			C143.239,1.01,143.433,0.99,143.632,0.989z M142.693,1.133c-0.153,0.048-0.299,0.11-0.441,0.178
			C142.394,1.242,142.54,1.18,142.693,1.133z M141.603,1.723c-0.159,0.131-0.305,0.277-0.436,0.436
			C141.298,2,141.444,1.854,141.603,1.723z"/>
		<g>
			<g>
				<path fill="#010101" d="M180.915,7.895c0.762,0,1.29,0.343,1.634,0.695l-0.536,0.603c-0.277-0.268-0.578-0.452-1.089-0.452
					c-0.972,0-1.625,0.754-1.625,1.985c0,1.248,0.586,2.002,1.684,2.002c0.302,0,0.603-0.083,0.779-0.243v-1.181h-1.03v-0.796h1.901
					v2.412c-0.377,0.352-1.022,0.654-1.768,0.654c-1.457,0-2.563-1.006-2.563-2.823C178.302,8.959,179.441,7.895,180.915,7.895z"/>
				<path fill="#010101" d="M185.374,9.26c1.114,0,1.7,0.804,1.7,1.952c0,0.185-0.017,0.352-0.042,0.453h-2.613
					c0.083,0.745,0.553,1.164,1.215,1.164c0.352,0,0.653-0.109,0.955-0.302l0.327,0.603c-0.394,0.259-0.888,0.444-1.407,0.444
					c-1.139,0-2.027-0.796-2.027-2.153C183.481,10.081,184.411,9.26,185.374,9.26z M186.237,11.053c0-0.654-0.276-1.047-0.837-1.047
					c-0.486,0-0.905,0.36-0.989,1.047H186.237z"/>
				<path fill="#010101" d="M188.015,10.123h-0.586v-0.72l0.637-0.042l0.117-1.123h0.804v1.123h1.047v0.762h-1.047v1.96
					c0,0.486,0.184,0.72,0.578,0.72c0.142,0,0.31-0.042,0.427-0.092l0.167,0.712c-0.226,0.075-0.511,0.151-0.838,0.151
					c-0.955,0-1.307-0.603-1.307-1.491V10.123z"/>
				<path fill="#010101" d="M192.508,8.096c0-0.327,0.251-0.553,0.595-0.553c0.344,0,0.595,0.226,0.595,0.553
					c0,0.318-0.251,0.545-0.595,0.545C192.759,8.641,192.508,8.415,192.508,8.096z M192.616,9.361h0.963v4.113h-0.963V9.361z"/>
				<path fill="#010101" d="M194.955,10.123h-0.586v-0.72l0.637-0.042l0.117-1.123h0.804v1.123h1.047v0.762h-1.047v1.96
					c0,0.486,0.184,0.72,0.578,0.72c0.142,0,0.31-0.042,0.427-0.092l0.167,0.712c-0.226,0.075-0.511,0.151-0.838,0.151
					c-0.955,0-1.307-0.603-1.307-1.491V10.123z"/>
				<path fill="#010101" d="M201.239,9.26c1.031,0,1.961,0.787,1.961,2.161c0,1.366-0.93,2.153-1.961,2.153
					c-1.021,0-1.951-0.787-1.951-2.153C199.287,10.048,200.217,9.26,201.239,9.26z M201.239,12.787c0.604,0,0.972-0.545,0.972-1.366
					c0-0.829-0.368-1.374-0.972-1.374c-0.602,0-0.963,0.545-0.963,1.374C200.276,12.243,200.636,12.787,201.239,12.787z"/>
				<path fill="#010101" d="M204.157,9.361h0.796l0.067,0.553h0.033c0.368-0.36,0.787-0.654,1.349-0.654
					c0.881,0,1.265,0.595,1.265,1.634v2.58h-0.964V11.02c0-0.679-0.192-0.93-0.645-0.93c-0.36,0-0.594,0.176-0.938,0.511v2.873
					h-0.962V9.361z"/>
			</g>
			<g>
				<path fill="#010101" d="M226.505,27.929c-0.436,0-0.835-0.079-1.195-0.241c-0.361-0.16-0.664-0.408-0.908-0.742h-0.075
					c0.049,0.391,0.075,0.762,0.075,1.112v2.758h-1.015v-9.71h0.826l0.14,0.917h0.049c0.261-0.367,0.564-0.63,0.912-0.795
					c0.345-0.161,0.743-0.244,1.191-0.244c0.89,0,1.575,0.304,2.059,0.91c0.482,0.607,0.724,1.46,0.724,2.557
					c0,1.1-0.246,1.955-0.735,2.565C228.059,27.625,227.378,27.929,226.505,27.929z M226.358,21.845c-0.683,0-1.179,0.19-1.485,0.57
					c-0.305,0.379-0.462,0.982-0.471,1.81v0.227c0,0.941,0.156,1.614,0.471,2.021c0.313,0.405,0.817,0.608,1.51,0.608
					c0.579,0,1.033-0.235,1.36-0.704c0.329-0.467,0.493-1.114,0.493-1.938c0-0.835-0.164-1.476-0.493-1.923
					C227.416,22.068,226.954,21.845,226.358,21.845z"/>
				<path fill="#010101" d="M231.637,27.807h-1.015v-9.513h1.015V27.807z"/>
				<path fill="#010101" d="M237.472,27.807l-0.201-0.954h-0.049c-0.334,0.422-0.668,0.705-1,0.853
					c-0.331,0.148-0.746,0.223-1.244,0.223c-0.664,0-1.184-0.171-1.562-0.512c-0.377-0.343-0.566-0.829-0.566-1.462
					c0-1.352,1.083-2.063,3.248-2.127l1.138-0.037v-0.417c0-0.526-0.114-0.914-0.34-1.164c-0.225-0.25-0.589-0.376-1.085-0.376
					c-0.559,0-1.189,0.172-1.894,0.514l-0.313-0.778c0.33-0.178,0.692-0.318,1.085-0.421c0.394-0.102,0.788-0.152,1.184-0.152
					c0.798,0,1.39,0.178,1.775,0.533c0.385,0.354,0.578,0.922,0.578,1.705v4.573H237.472z M235.18,27.092
					c0.632,0,1.129-0.173,1.489-0.519c0.359-0.347,0.54-0.832,0.54-1.456v-0.604l-1.016,0.042c-0.807,0.029-1.389,0.154-1.743,0.376
					c-0.358,0.223-0.535,0.569-0.535,1.036c0,0.367,0.11,0.647,0.332,0.837C234.47,26.997,234.78,27.092,235.18,27.092z"/>
				<path fill="#010101" d="M238.813,21.106h1.088l1.468,3.822c0.32,0.872,0.522,1.501,0.598,1.889h0.049
					c0.053-0.21,0.164-0.564,0.334-1.068c0.169-0.503,0.722-2.052,1.659-4.643h1.089l-2.879,7.63c-0.286,0.755-0.619,1.289-1,1.606
					c-0.381,0.317-0.85,0.474-1.403,0.474c-0.31,0-0.616-0.036-0.918-0.105v-0.814c0.224,0.051,0.475,0.074,0.752,0.074
					c0.697,0,1.194-0.392,1.492-1.174l0.373-0.954L238.813,21.106z"/>
			</g>
			<g>
				<path fill="#010101" d="M207.704,21.729c0.323,0.266,0.995,0.827,0.995,1.891c0,1.038-0.588,1.529-1.176,1.991
					c-0.182,0.18-0.394,0.379-0.394,0.688c0,0.308,0.212,0.476,0.366,0.602l0.505,0.392c0.616,0.52,1.176,0.995,1.176,1.963
					c0,1.317-1.276,2.649-3.686,2.649c-2.033,0-3.013-0.967-3.013-2.004c0-0.505,0.25-1.219,1.08-1.711
					c0.868-0.533,2.046-0.602,2.676-0.645c-0.197-0.252-0.421-0.518-0.421-0.951c0-0.24,0.07-0.381,0.14-0.549
					c-0.155,0.015-0.309,0.028-0.449,0.028c-1.485,0-2.326-1.107-2.326-2.199c0-0.645,0.295-1.36,0.897-1.878
					c0.799-0.658,1.752-0.771,2.509-0.771h2.887l-0.897,0.505H207.704z M206.709,27.953c-0.112-0.015-0.183-0.015-0.322-0.015
					c-0.126,0-0.885,0.028-1.472,0.226c-0.309,0.111-1.205,0.448-1.205,1.442c0,0.994,0.967,1.711,2.466,1.711
					c1.346,0,2.06-0.645,2.06-1.514C208.237,29.087,207.775,28.709,206.709,27.953z M207.115,25.289
					c0.322-0.323,0.35-0.769,0.35-1.022c0-1.01-0.602-2.58-1.766-2.58c-0.365,0-0.757,0.183-0.982,0.464
					c-0.237,0.294-0.307,0.671-0.307,1.037c0,0.938,0.547,2.495,1.752,2.495C206.514,25.682,206.891,25.514,207.115,25.289z"/>
				<path fill="#010101" d="M198.881,27.729c-2.225,0-3.414-1.737-3.414-3.304c0-1.833,1.496-3.4,3.624-3.4
					c2.057,0,3.344,1.609,3.344,3.303C202.435,25.979,201.162,27.729,198.881,27.729z M200.63,26.595
					c0.336-0.448,0.42-1.008,0.42-1.554c0-1.233-0.587-3.582-2.323-3.582c-0.462,0-0.923,0.183-1.258,0.476
					c-0.546,0.489-0.645,1.105-0.645,1.708c0,1.384,0.686,3.664,2.379,3.664C199.749,27.308,200.31,27.042,200.63,26.595z"/>
				<path fill="#010101" d="M191.297,27.729c-2.226,0-3.415-1.737-3.415-3.304c0-1.833,1.498-3.4,3.625-3.4
					c2.057,0,3.344,1.609,3.344,3.303C194.85,25.979,193.577,27.729,191.297,27.729z M193.046,26.595
					c0.335-0.448,0.419-1.008,0.419-1.554c0-1.233-0.587-3.582-2.323-3.582c-0.462,0-0.924,0.183-1.259,0.476
					c-0.547,0.489-0.645,1.105-0.645,1.708c0,1.384,0.686,3.664,2.38,3.664C192.164,27.308,192.723,27.042,193.046,26.595z"/>
				<path fill="#010101" d="M186.812,27.509l-2.011,0.464c-0.818,0.127-1.548,0.238-2.321,0.238c-3.883,0-5.36-2.855-5.36-5.093
					c0-2.729,2.096-5.261,5.684-5.261c0.76,0,1.491,0.113,2.151,0.295c1.057,0.295,1.549,0.661,1.858,0.872l-1.167,1.111
					l-0.492,0.112l0.352-0.563c-0.478-0.463-1.351-1.321-3.011-1.321c-2.223,0-3.897,1.689-3.897,4.151
					c0,2.645,1.913,5.135,4.979,5.135c0.902,0,1.365-0.184,1.787-0.353v-2.264l-2.124,0.112l1.125-0.607h2.983l-0.366,0.353
					c-0.099,0.084-0.113,0.112-0.141,0.225c-0.014,0.126-0.028,0.535-0.028,0.674V27.509z"/>
				<path fill="#010101" d="M212.151,27.104c-0.465-0.043-0.562-0.126-0.562-0.676v-0.155v-7.808
					c0.003-0.031,0.005-0.061,0.007-0.091c0.057-0.492,0.197-0.576,0.635-0.83h-2.013l-1.056,0.507h1.075v0.006v-0.005v8.221v0.465
					c0,0.281-0.056,0.323-0.38,0.745h2.49l0.522-0.308C212.63,27.145,212.39,27.132,212.151,27.104z"/>
				<path fill="#010101" d="M217.877,27.233c-0.154,0.084-0.308,0.183-0.46,0.251c-0.462,0.211-0.938,0.267-1.358,0.267
					c-0.445,0-1.145-0.03-1.857-0.546c-0.993-0.698-1.426-1.9-1.426-2.948c0-2.166,1.762-3.227,3.2-3.227
					c0.503,0,1.019,0.126,1.441,0.392c0.697,0.46,0.878,1.06,0.976,1.382l-3.283,1.328l-1.077,0.084
					c0.35,1.774,1.551,2.807,2.879,2.807c0.713,0,1.229-0.252,1.705-0.489L217.877,27.233z M216.562,23.068
					c0.266-0.097,0.405-0.181,0.405-0.376c0-0.558-0.628-1.202-1.383-1.202c-0.56,0-1.607,0.433-1.607,1.942
					c0,0.237,0.028,0.489,0.043,0.74L216.562,23.068z"/>
				<g>
					<path fill="#010101" d="M219.225,21.125v0.922h-0.112v-0.922h-0.305v-0.096h0.723v0.096H219.225z"/>
					<path fill="#010101" d="M220.481,22.047v-0.93h-0.004l-0.285,0.93h-0.088l-0.286-0.93h-0.003v0.93h-0.102v-1.017h0.175
						l0.259,0.823h0.002l0.256-0.823h0.176v1.017H220.481z"/>
				</g>
			</g>
			<g id="PLAY_1_">
				<defs>
					<path id="SVGID_1_" d="M165.688,15.019l-4.707-2.607c0,0-8.576-4.75-9.08-5.029c-0.504-0.28-1.007-0.11-1.007,0.473
						c0,0.972,0,10.141,0,10.141s0,9.91,0,10.347c0,0.437,0.359,0.626,0.798,0.384c0.437-0.242,9.289-5.146,9.289-5.146l4.707-2.606
						c0,0,3.994-2.212,4.525-2.506c0.531-0.294,0.48-0.697,0.032-0.929C169.796,17.31,165.688,15.019,165.688,15.019z"/>
				</defs>
				<clipPath id="SVGID_2_">
					<use xlink:href="#SVGID_1_"  overflow="visible"/>
				</clipPath>
				<linearGradient id="SVGID_3_" gradientUnits="userSpaceOnUse" x1="156.7246" y1="6.9064" x2="156.7246" y2="29.0897">
					<stop  offset="0" style="stop-color:#257CAF"/>
					<stop  offset="0.2863" style="stop-color:#4A93B4"/>
					<stop  offset="0.767" style="stop-color:#78BCBA"/>
					<stop  offset="1" style="stop-color:#89CFBD"/>
				</linearGradient>
				<polygon clip-path="url(#SVGID_2_)" fill="url(#SVGID_3_)" points="150.894,6.906 150.894,17.998 150.894,29.09 162.556,17.998 
									"/>
				<linearGradient id="SVGID_4_" gradientUnits="userSpaceOnUse" x1="150.8936" y1="12.4116" x2="165.6876" y2="12.4116">
					<stop  offset="0" style="stop-color:#50C0AC"/>
					<stop  offset="1" style="stop-color:#DDE899"/>
				</linearGradient>
				<polygon clip-path="url(#SVGID_2_)" fill="url(#SVGID_4_)" points="165.688,15.019 160.981,12.412 150.894,6.825 150.894,6.906 
					162.556,17.998 				"/>
				<linearGradient id="SVGID_5_" gradientUnits="userSpaceOnUse" x1="158.2906" y1="17.9976" x2="158.2906" y2="29.1691">
					<stop  offset="0" style="stop-color:#EB413D"/>
					<stop  offset="0.1703" style="stop-color:#D84452"/>
					<stop  offset="0.5766" style="stop-color:#B0487A"/>
					<stop  offset="0.8624" style="stop-color:#954A92"/>
					<stop  offset="1" style="stop-color:#894A9D"/>
				</linearGradient>
				<polygon clip-path="url(#SVGID_2_)" fill="url(#SVGID_5_)" points="150.894,29.09 150.894,29.169 160.981,23.583 
					165.688,20.977 162.556,17.998 				"/>
				<linearGradient id="SVGID_6_" gradientUnits="userSpaceOnUse" x1="166.8114" y1="15.0188" x2="166.8114" y2="20.9769">
					<stop  offset="0" style="stop-color:#F58779"/>
					<stop  offset="0.1194" style="stop-color:#F68F79"/>
					<stop  offset="0.7128" style="stop-color:#FBB777"/>
					<stop  offset="1" style="stop-color:#FEC775"/>
				</linearGradient>
				<polygon clip-path="url(#SVGID_2_)" fill="url(#SVGID_6_)" points="165.688,15.019 162.556,17.998 165.688,20.977 
					171.067,17.998 				"/>
			</g>
		</g>
	</g>
	<g>
		<path fill="#FFFFFF" d="M393.607,4.203c0.001-2.184-1.78-3.961-3.963-3.961h-0.001h-56.325h-48.833
			c-2.185,0-3.963,1.777-3.963,3.961v25.598c0,2.183,1.779,3.957,3.963,3.957h70.895h34.264c1.91,0,3.512-1.359,3.882-3.161
			c0.053-0.258,0.081-0.525,0.081-0.798V4.203z M284.469,0.989c-0.199,0.001-0.394,0.021-0.583,0.057
			C284.075,1.01,284.269,0.99,284.469,0.989z M283.529,1.133c-0.153,0.048-0.299,0.11-0.441,0.178
			C283.23,1.242,283.376,1.18,283.529,1.133z M282.439,1.723c-0.159,0.131-0.305,0.277-0.436,0.436
			C282.134,2,282.28,1.854,282.439,1.723z"/>
		<g>
			<g>
				<g id="XMLID_2_">
					<path fill="#D52C3F" d="M310.686,14.952c-0.034-0.114-0.057-0.239-0.057-0.364c0-0.125,0.011-0.251,0.046-0.376
						c0.034-0.114,0.08-0.216,0.148-0.296c0.057-0.08,0.137-0.148,0.239-0.194c0.091-0.057,0.194-0.08,0.319-0.08
						c0.103,0,0.205,0.023,0.296,0.057c0.091,0.046,0.171,0.103,0.239,0.171c0.068,0.08,0.125,0.171,0.159,0.273
						c0.046,0.103,0.057,0.228,0.057,0.376c0.011,0.137,0,0.262-0.034,0.387c-0.023,0.125-0.068,0.228-0.137,0.319
						c-0.057,0.091-0.137,0.159-0.239,0.216c-0.091,0.057-0.216,0.08-0.342,0.08c-0.114,0-0.228-0.023-0.319-0.08
						c-0.091-0.046-0.171-0.114-0.228-0.194C310.765,15.157,310.72,15.066,310.686,14.952z"/>
					<path fill="#D52C3F" d="M308.066,14.952c-0.034-0.114-0.057-0.239-0.057-0.364c0-0.125,0.023-0.251,0.057-0.376
						c0.023-0.114,0.08-0.216,0.137-0.296c0.068-0.08,0.148-0.148,0.239-0.194c0.091-0.057,0.194-0.08,0.319-0.08
						c0.114,0,0.205,0.023,0.296,0.057c0.091,0.046,0.171,0.103,0.239,0.171c0.068,0.08,0.125,0.171,0.171,0.273
						c0.034,0.103,0.057,0.228,0.057,0.376c0,0.137-0.011,0.262-0.034,0.387c-0.034,0.125-0.08,0.228-0.137,0.319
						c-0.068,0.091-0.148,0.159-0.251,0.216c-0.091,0.057-0.205,0.08-0.342,0.08c-0.114,0-0.216-0.023-0.319-0.08
						c-0.091-0.046-0.171-0.114-0.228-0.194C308.146,15.157,308.1,15.066,308.066,14.952z"/>
					<polygon fill="#D52C3F" points="305.993,12.856 306.596,14.473 305.389,14.473 					"/>
					<path fill="#D52C3F" d="M298.908,14.132c0.034-0.103,0.08-0.182,0.148-0.251c0.057-0.068,0.137-0.125,0.216-0.171
						c0.091-0.046,0.194-0.068,0.308-0.068c0.114,0,0.216,0.023,0.308,0.068c0.08,0.034,0.159,0.091,0.216,0.159
						s0.103,0.159,0.137,0.251c0.023,0.103,0.046,0.194,0.046,0.308h-1.458C298.84,14.325,298.863,14.223,298.908,14.132z"/>
					<path fill="#D52C3F" d="M301.391,14.952c-0.034-0.114-0.046-0.239-0.046-0.376c0-0.125,0.011-0.251,0.046-0.364
						c0.034-0.103,0.091-0.205,0.148-0.296c0.068-0.08,0.148-0.148,0.239-0.194c0.091-0.057,0.194-0.08,0.319-0.08
						s0.239,0.023,0.342,0.08c0.103,0.057,0.182,0.125,0.239,0.216c0.068,0.091,0.114,0.205,0.137,0.319
						c0.034,0.125,0.046,0.251,0.034,0.399c0,0.137-0.011,0.262-0.057,0.364c-0.034,0.114-0.091,0.205-0.159,0.273
						c-0.068,0.08-0.148,0.125-0.239,0.171c-0.091,0.034-0.194,0.057-0.296,0.057c-0.125,0-0.228-0.023-0.33-0.068
						c-0.091-0.057-0.171-0.125-0.228-0.205C301.471,15.168,301.425,15.066,301.391,14.952z"/>
					<path fill="#D52C3F" d="M310.367,16.569h0.262V15.35c0.091,0.137,0.194,0.228,0.342,0.296s0.296,0.103,0.456,0.103
						c0.159,0,0.308-0.034,0.433-0.091c0.125-0.068,0.228-0.148,0.308-0.262c0.08-0.103,0.148-0.228,0.182-0.376
						c0.046-0.137,0.068-0.285,0.068-0.444s-0.023-0.319-0.057-0.456c-0.046-0.148-0.103-0.262-0.182-0.376
						c-0.08-0.103-0.182-0.182-0.308-0.239c-0.125-0.057-0.285-0.091-0.456-0.091c-0.08,0-0.148,0.011-0.228,0.034
						c-0.068,0.011-0.148,0.046-0.216,0.08c-0.068,0.034-0.125,0.08-0.194,0.137c-0.057,0.057-0.103,0.125-0.137,0.194h-0.011
						v-0.387h-0.262V16.569z M308.009,13.858v-0.387h-0.251v3.098h0.251v-1.23c0.08,0.137,0.194,0.239,0.342,0.308
						c0.148,0.068,0.296,0.103,0.456,0.103c0.171,0,0.308-0.034,0.433-0.091c0.125-0.068,0.228-0.148,0.308-0.262
						c0.091-0.103,0.148-0.228,0.182-0.376c0.046-0.137,0.068-0.285,0.068-0.444s-0.023-0.319-0.057-0.456
						c-0.034-0.148-0.103-0.262-0.182-0.376c-0.08-0.103-0.182-0.182-0.308-0.239c-0.125-0.057-0.285-0.091-0.456-0.091
						c-0.08,0-0.148,0.011-0.228,0.034c-0.068,0.011-0.137,0.046-0.216,0.08c-0.068,0.034-0.125,0.08-0.182,0.137
						c-0.068,0.057-0.114,0.125-0.148,0.194H308.009z M304.922,15.692l0.365-0.968h1.401l0.365,0.968h0.296l-1.185-3.087h-0.33
						l-1.207,3.087H304.922z M301.084,12.605v3.087h0.262v-0.387h0.011c0.034,0.068,0.08,0.137,0.137,0.194
						c0.057,0.057,0.125,0.103,0.194,0.137c0.068,0.034,0.148,0.068,0.216,0.091c0.08,0.011,0.148,0.023,0.216,0.023
						c0.182,0,0.33-0.023,0.467-0.091c0.125-0.057,0.228-0.137,0.308-0.239c0.08-0.103,0.137-0.228,0.171-0.376
						c0.046-0.137,0.057-0.296,0.057-0.456c0-0.159-0.011-0.308-0.057-0.444c-0.034-0.148-0.103-0.273-0.182-0.376
						c-0.08-0.114-0.182-0.194-0.308-0.262c-0.125-0.057-0.273-0.091-0.444-0.091c-0.148,0-0.308,0.034-0.444,0.103
						c-0.148,0.068-0.262,0.171-0.342,0.308v-1.219H301.084z M298.828,14.644h1.731c0-0.399-0.091-0.706-0.262-0.911
						c-0.171-0.216-0.41-0.319-0.718-0.319c-0.159,0-0.308,0.034-0.433,0.091c-0.125,0.057-0.228,0.148-0.319,0.251
						c-0.08,0.114-0.148,0.239-0.205,0.376c-0.046,0.148-0.068,0.296-0.068,0.456c0,0.171,0.023,0.319,0.068,0.456
						c0.034,0.148,0.091,0.273,0.182,0.376c0.08,0.103,0.182,0.182,0.319,0.239c0.125,0.068,0.273,0.091,0.456,0.091
						c0.137,0,0.262-0.011,0.365-0.057c0.103-0.034,0.194-0.08,0.273-0.148c0.08-0.068,0.148-0.148,0.194-0.239
						c0.057-0.091,0.091-0.194,0.125-0.296h-0.285c-0.046,0.159-0.125,0.296-0.239,0.376c-0.125,0.091-0.262,0.137-0.433,0.137
						c-0.125,0-0.228-0.023-0.33-0.068c-0.091-0.046-0.171-0.114-0.228-0.194c-0.068-0.08-0.114-0.171-0.148-0.273
						C298.851,14.872,298.828,14.758,298.828,14.644z M294.91,12.605h-0.296l0.797,3.087h0.319l0.718-2.722h0.011l0.718,2.722h0.319
						l0.809-3.087h-0.296l-0.672,2.677h-0.011l-0.706-2.677H296.3l-0.718,2.677h-0.011L294.91,12.605z M291.425,20.51V7.423h24.181
						V20.51H291.425z"/>
					<path fill="#293246" d="M309.25,29.087h-11.47v-0.592c2.426,0,3.451-0.171,3.508-2.574h4.454
						c0.057,2.403,1.082,2.563,3.508,2.574V29.087z"/>
					<path fill="#293246" d="M316.016,7.013h-25.001V20.92h25.001V7.013z M291.846,6.523h23.339c0.729,0,1.321,0.592,1.321,1.321
						v15.718c0,0.729-0.592,1.321-1.321,1.321h-23.339c-0.729,0-1.321-0.592-1.321-1.321V7.844
						C290.525,7.115,291.117,6.523,291.846,6.523z"/>
					<path fill="#F2F2F2" d="M310.629,14.587c0,0.125,0.023,0.251,0.057,0.364c0.034,0.114,0.08,0.205,0.148,0.296
						c0.057,0.08,0.137,0.148,0.228,0.194c0.091,0.057,0.205,0.08,0.319,0.08c0.125,0,0.251-0.023,0.342-0.08
						c0.103-0.057,0.182-0.125,0.239-0.216c0.068-0.091,0.114-0.194,0.137-0.319c0.034-0.125,0.046-0.251,0.034-0.387
						c0-0.148-0.011-0.273-0.057-0.376c-0.034-0.103-0.091-0.194-0.159-0.273c-0.068-0.068-0.148-0.125-0.239-0.171
						c-0.091-0.034-0.194-0.057-0.296-0.057c-0.125,0-0.228,0.023-0.319,0.08c-0.103,0.046-0.182,0.114-0.239,0.194
						c-0.068,0.08-0.114,0.182-0.148,0.296C310.64,14.337,310.629,14.462,310.629,14.587z M310.629,13.471v0.387h0.011
						c0.034-0.068,0.08-0.137,0.137-0.194c0.068-0.057,0.125-0.103,0.194-0.137c0.068-0.034,0.148-0.068,0.216-0.08
						c0.08-0.023,0.148-0.034,0.228-0.034c0.171,0,0.33,0.034,0.456,0.091c0.125,0.057,0.228,0.137,0.308,0.239
						c0.08,0.114,0.137,0.228,0.182,0.376c0.034,0.137,0.057,0.296,0.057,0.456s-0.023,0.308-0.068,0.444
						c-0.034,0.148-0.103,0.273-0.182,0.376c-0.08,0.114-0.182,0.194-0.308,0.262c-0.125,0.057-0.273,0.091-0.433,0.091
						c-0.159,0-0.308-0.034-0.456-0.103s-0.251-0.159-0.342-0.296v1.219h-0.262v-3.098H310.629z"/>
					<path fill="#F2F2F2" d="M308.009,13.858h0.011c0.034-0.068,0.08-0.137,0.148-0.194c0.057-0.057,0.114-0.103,0.182-0.137
						c0.08-0.034,0.148-0.068,0.216-0.08c0.08-0.023,0.148-0.034,0.228-0.034c0.171,0,0.33,0.034,0.456,0.091
						c0.125,0.057,0.228,0.137,0.308,0.239c0.08,0.114,0.148,0.228,0.182,0.376c0.034,0.137,0.057,0.296,0.057,0.456
						s-0.023,0.308-0.068,0.444c-0.034,0.148-0.091,0.273-0.182,0.376c-0.08,0.114-0.182,0.194-0.308,0.262
						c-0.125,0.057-0.262,0.091-0.433,0.091c-0.159,0-0.308-0.034-0.456-0.103c-0.148-0.068-0.262-0.171-0.342-0.308v1.23h-0.251
						v-3.098h0.251V13.858z M308.009,14.587c0,0.125,0.023,0.251,0.057,0.364c0.034,0.114,0.08,0.205,0.148,0.296
						c0.057,0.08,0.137,0.148,0.228,0.194c0.103,0.057,0.205,0.08,0.319,0.08c0.137,0,0.251-0.023,0.342-0.08
						c0.103-0.057,0.182-0.125,0.251-0.216c0.057-0.091,0.103-0.194,0.137-0.319c0.023-0.125,0.034-0.251,0.034-0.387
						c0-0.148-0.023-0.273-0.057-0.376c-0.046-0.103-0.103-0.194-0.171-0.273c-0.068-0.068-0.148-0.125-0.239-0.171
						c-0.091-0.034-0.182-0.057-0.296-0.057c-0.125,0-0.228,0.023-0.319,0.08c-0.091,0.046-0.171,0.114-0.239,0.194
						c-0.057,0.08-0.114,0.182-0.137,0.296C308.032,14.337,308.009,14.462,308.009,14.587z"/>
					<path fill="#F2F2F2" d="M306.596,14.473l-0.604-1.617l-0.604,1.617H306.596z M305.287,14.724l-0.365,0.968h-0.296l1.207-3.087
						h0.33l1.185,3.087h-0.296l-0.365-0.968H305.287z"/>
					<path fill="#F2F2F2" d="M301.346,14.576c0,0.137,0.011,0.262,0.046,0.376c0.034,0.114,0.08,0.216,0.148,0.296
						c0.057,0.08,0.137,0.148,0.228,0.205c0.103,0.046,0.205,0.068,0.33,0.068c0.103,0,0.205-0.023,0.296-0.057
						c0.091-0.046,0.171-0.091,0.239-0.171c0.068-0.068,0.125-0.159,0.159-0.273c0.046-0.103,0.057-0.228,0.057-0.364
						c0.011-0.148,0-0.273-0.034-0.399c-0.023-0.114-0.068-0.228-0.137-0.319c-0.057-0.091-0.137-0.159-0.239-0.216
						c-0.103-0.057-0.216-0.08-0.342-0.08s-0.228,0.023-0.319,0.08c-0.091,0.046-0.171,0.114-0.239,0.194
						c-0.057,0.091-0.114,0.194-0.148,0.296C301.357,14.325,301.346,14.45,301.346,14.576z M301.084,15.692v-3.087h0.262v1.219
						c0.08-0.137,0.194-0.239,0.342-0.308c0.137-0.068,0.296-0.103,0.444-0.103c0.171,0,0.319,0.034,0.444,0.091
						c0.125,0.068,0.228,0.148,0.308,0.262c0.08,0.103,0.148,0.228,0.182,0.376c0.046,0.137,0.057,0.285,0.057,0.444
						c0,0.159-0.011,0.319-0.057,0.456c-0.034,0.148-0.091,0.273-0.171,0.376c-0.08,0.103-0.182,0.182-0.308,0.239
						c-0.137,0.068-0.285,0.091-0.467,0.091c-0.068,0-0.137-0.011-0.216-0.023c-0.068-0.023-0.148-0.057-0.216-0.091
						c-0.068-0.034-0.137-0.08-0.194-0.137c-0.057-0.057-0.103-0.125-0.137-0.194h-0.011v0.387H301.084z"/>
					<path fill="#F2F2F2" d="M299.056,13.881c-0.068,0.068-0.114,0.148-0.148,0.251c-0.046,0.091-0.068,0.194-0.08,0.296h1.458
						c0-0.114-0.023-0.205-0.046-0.308c-0.034-0.091-0.08-0.182-0.137-0.251s-0.137-0.125-0.216-0.159
						c-0.091-0.046-0.194-0.068-0.308-0.068c-0.114,0-0.216,0.023-0.308,0.068C299.193,13.756,299.113,13.813,299.056,13.881z
						 M298.874,14.986c0.034,0.103,0.08,0.194,0.148,0.273c0.057,0.08,0.137,0.148,0.228,0.194c0.103,0.046,0.205,0.068,0.33,0.068
						c0.171,0,0.308-0.046,0.433-0.137c0.114-0.08,0.194-0.216,0.239-0.376h0.285c-0.034,0.103-0.068,0.205-0.125,0.296
						c-0.046,0.091-0.114,0.171-0.194,0.239c-0.08,0.068-0.171,0.114-0.273,0.148c-0.103,0.046-0.228,0.057-0.365,0.057
						c-0.182,0-0.33-0.023-0.456-0.091c-0.137-0.057-0.239-0.137-0.319-0.239c-0.091-0.103-0.148-0.228-0.182-0.376
						c-0.046-0.137-0.068-0.285-0.068-0.456c0-0.159,0.023-0.308,0.068-0.456c0.057-0.137,0.125-0.262,0.205-0.376
						c0.091-0.103,0.194-0.194,0.319-0.251c0.125-0.057,0.273-0.091,0.433-0.091c0.308,0,0.547,0.103,0.718,0.319
						c0.171,0.205,0.262,0.513,0.262,0.911h-1.731C298.828,14.758,298.851,14.872,298.874,14.986z"/>
					<path fill="#010101" d="M309.66,29.486h-12.29v-1.401h0.205c2.62,0,3.303-0.091,3.303-2.369V25.51h5.274v0.205
						c0,2.278,0.683,2.369,3.303,2.369h0.205V29.486z M297.78,29.087h11.47v-0.592c-2.426-0.011-3.451-0.171-3.508-2.574h-4.454
						c-0.057,2.403-1.082,2.574-3.508,2.574V29.087z"/>
					<polygon fill="#F2F2F2" points="297.177,15.692 296.459,12.97 296.448,12.97 295.73,15.692 295.411,15.692 294.614,12.605 
						294.91,12.605 295.571,15.282 295.582,15.282 296.3,12.605 296.619,12.605 297.325,15.282 297.336,15.282 298.008,12.605 
						298.304,12.605 297.496,15.692 					"/>
					<path fill="#010101" d="M291.015,7.013h25.001V20.92h-25.001V7.013z M291.425,20.51h24.181V7.423h-24.181V20.51z"/>
					<path fill="#010101" d="M290.115,7.844c0-0.957,0.786-1.731,1.731-1.731h23.339c0.945,0,1.731,0.775,1.731,1.731v15.718
						c0,0.957-0.786,1.731-1.731,1.731h-23.339c-0.957,0-1.731-0.775-1.731-1.731V7.844z M315.185,6.523h-23.339
						c-0.729,0-1.321,0.592-1.321,1.321v15.718c0,0.729,0.592,1.321,1.321,1.321h23.339c0.729,0,1.321-0.592,1.321-1.321V7.844
						C316.506,7.115,315.914,6.523,315.185,6.523z"/>
				</g>
			</g>
		</g>
		<g>
			<path fill="#010101" d="M325.542,12.157h1.508c0.156,0,0.287,0.037,0.391,0.11c0.105,0.074,0.175,0.174,0.211,0.298l1.647,5.794
				c0.036,0.143,0.07,0.298,0.104,0.465c0.033,0.168,0.068,0.345,0.104,0.532c0.036-0.187,0.075-0.365,0.117-0.532
				s0.088-0.323,0.137-0.465l1.902-5.794c0.036-0.103,0.106-0.197,0.211-0.281c0.105-0.085,0.233-0.127,0.385-0.127h0.529
				c0.156,0,0.283,0.038,0.382,0.114c0.098,0.076,0.172,0.174,0.221,0.295l1.895,5.794c0.094,0.277,0.179,0.596,0.255,0.958
				c0.058-0.353,0.123-0.672,0.194-0.958l1.648-5.794c0.027-0.112,0.095-0.208,0.204-0.288c0.109-0.08,0.24-0.12,0.392-0.12h1.413
				l-3.008,9.686h-1.627l-2.117-6.618c-0.031-0.085-0.06-0.177-0.087-0.275s-0.054-0.201-0.081-0.308
				c-0.022,0.107-0.048,0.21-0.077,0.308c-0.029,0.098-0.057,0.19-0.084,0.275l-2.137,6.618h-1.634L325.542,12.157z"/>
			<path fill="#010101" d="M342.435,14.863c0.433,0,0.833,0.069,1.199,0.208s0.681,0.34,0.944,0.606
				c0.264,0.266,0.47,0.592,0.62,0.978c0.149,0.386,0.224,0.827,0.224,1.323c0,0.25-0.027,0.419-0.081,0.506
				c-0.054,0.087-0.156,0.131-0.308,0.131h-4.253c0.027,0.353,0.09,0.657,0.188,0.914c0.098,0.257,0.228,0.469,0.388,0.636
				c0.161,0.168,0.352,0.293,0.573,0.375c0.221,0.083,0.466,0.124,0.734,0.124s0.499-0.031,0.693-0.094
				c0.194-0.062,0.364-0.132,0.509-0.208c0.145-0.076,0.272-0.145,0.381-0.208c0.11-0.062,0.215-0.094,0.319-0.094
				c0.138,0,0.241,0.051,0.308,0.154l0.475,0.603c-0.183,0.214-0.388,0.394-0.616,0.539c-0.227,0.145-0.465,0.261-0.713,0.348
				c-0.248,0.087-0.5,0.148-0.757,0.184c-0.257,0.036-0.506,0.054-0.747,0.054c-0.478,0-0.922-0.08-1.333-0.238
				c-0.411-0.158-0.768-0.393-1.072-0.703c-0.303-0.31-0.542-0.694-0.717-1.152c-0.174-0.458-0.261-0.988-0.261-1.591
				c0-0.469,0.075-0.91,0.227-1.323c0.152-0.413,0.369-0.772,0.653-1.078s0.629-0.548,1.038-0.727
				C341.46,14.952,341.921,14.863,342.435,14.863z M342.468,16.048c-0.482,0-0.86,0.136-1.132,0.409
				c-0.272,0.273-0.446,0.659-0.522,1.159h3.121c0-0.214-0.03-0.416-0.09-0.606c-0.06-0.19-0.151-0.356-0.272-0.499
				c-0.12-0.143-0.273-0.256-0.458-0.339C342.929,16.089,342.714,16.048,342.468,16.048z"/>
			<path fill="#010101" d="M346.661,21.842v-9.954h1.654v3.932c0.277-0.295,0.584-0.528,0.921-0.7
				c0.337-0.172,0.722-0.258,1.155-0.258c0.397,0,0.756,0.078,1.075,0.234c0.32,0.156,0.592,0.381,0.817,0.673
				c0.226,0.292,0.399,0.646,0.519,1.062c0.121,0.415,0.181,0.882,0.181,1.4c0,0.558-0.069,1.065-0.208,1.521
				c-0.138,0.455-0.336,0.845-0.593,1.169c-0.257,0.324-0.566,0.575-0.928,0.753c-0.362,0.179-0.763,0.268-1.206,0.268
				c-0.214,0-0.41-0.022-0.586-0.064s-0.337-0.102-0.482-0.178c-0.145-0.075-0.279-0.168-0.402-0.278
				c-0.123-0.109-0.24-0.231-0.352-0.365l-0.073,0.462c-0.027,0.116-0.073,0.199-0.137,0.248c-0.065,0.049-0.153,0.073-0.265,0.073
				H346.661z M349.823,16.149c-0.317,0-0.594,0.072-0.83,0.217c-0.237,0.145-0.462,0.35-0.677,0.613v3.081
				c0.188,0.232,0.392,0.394,0.613,0.486c0.221,0.092,0.454,0.137,0.7,0.137c0.255,0,0.484-0.046,0.687-0.137
				c0.203-0.092,0.376-0.234,0.519-0.429c0.143-0.194,0.253-0.442,0.329-0.743c0.076-0.302,0.114-0.662,0.114-1.082
				c0-0.755-0.125-1.301-0.375-1.638C350.651,16.317,350.292,16.149,349.823,16.149z"/>
			<path fill="#010101" d="M365.631,21.842h-1.393c-0.156,0-0.284-0.039-0.382-0.117s-0.172-0.175-0.221-0.291l-0.724-1.976h-4.012
				l-0.723,1.976c-0.036,0.103-0.105,0.197-0.208,0.281c-0.103,0.085-0.23,0.127-0.382,0.127h-1.406l3.811-9.686h1.836
				L365.631,21.842z M359.361,18.185h3.088l-1.179-3.222c-0.058-0.143-0.119-0.311-0.181-0.506
				c-0.062-0.195-0.125-0.406-0.187-0.633c-0.063,0.227-0.124,0.44-0.185,0.636c-0.06,0.197-0.119,0.368-0.177,0.516L359.361,18.185
				z"/>
			<path fill="#010101" d="M366.374,24.086V14.97h1.011c0.214,0,0.355,0.101,0.422,0.301l0.134,0.637
				c0.277-0.317,0.595-0.574,0.955-0.77c0.359-0.197,0.78-0.295,1.262-0.295c0.375,0,0.718,0.078,1.029,0.234
				c0.31,0.156,0.578,0.383,0.804,0.68s0.4,0.663,0.523,1.098c0.122,0.435,0.184,0.934,0.184,1.497c0,0.514-0.069,0.989-0.208,1.427
				c-0.138,0.438-0.336,0.817-0.593,1.139c-0.257,0.322-0.567,0.573-0.931,0.754c-0.364,0.181-0.771,0.271-1.222,0.271
				c-0.388,0-0.718-0.059-0.988-0.178c-0.27-0.118-0.512-0.282-0.727-0.493v2.814H366.374z M369.589,16.149
				c-0.344,0-0.638,0.072-0.881,0.217c-0.244,0.145-0.47,0.35-0.68,0.613v3.081c0.188,0.232,0.392,0.394,0.613,0.486
				s0.461,0.137,0.72,0.137c0.25,0,0.475-0.047,0.677-0.141c0.201-0.094,0.372-0.236,0.512-0.428
				c0.141-0.192,0.249-0.434,0.325-0.727c0.076-0.292,0.114-0.638,0.114-1.035c0-0.402-0.032-0.742-0.097-1.021
				c-0.065-0.279-0.158-0.506-0.278-0.68c-0.121-0.174-0.267-0.301-0.439-0.382C370.003,16.189,369.808,16.149,369.589,16.149z"/>
			<path fill="#010101" d="M373.983,24.086V14.97h1.011c0.214,0,0.355,0.101,0.422,0.301l0.134,0.637
				c0.277-0.317,0.595-0.574,0.955-0.77c0.359-0.197,0.78-0.295,1.262-0.295c0.375,0,0.718,0.078,1.028,0.234
				c0.31,0.156,0.578,0.383,0.804,0.68c0.225,0.297,0.4,0.663,0.523,1.098c0.122,0.435,0.184,0.934,0.184,1.497
				c0,0.514-0.069,0.989-0.208,1.427c-0.138,0.438-0.336,0.817-0.593,1.139c-0.257,0.322-0.567,0.573-0.931,0.754
				c-0.364,0.181-0.771,0.271-1.222,0.271c-0.388,0-0.718-0.059-0.988-0.178c-0.27-0.118-0.512-0.282-0.727-0.493v2.814H373.983z
				 M377.198,16.149c-0.344,0-0.638,0.072-0.881,0.217c-0.244,0.145-0.47,0.35-0.68,0.613v3.081
				c0.188,0.232,0.392,0.394,0.613,0.486s0.461,0.137,0.72,0.137c0.25,0,0.475-0.047,0.677-0.141
				c0.201-0.094,0.372-0.236,0.512-0.428c0.141-0.192,0.249-0.434,0.325-0.727c0.076-0.292,0.114-0.638,0.114-1.035
				c0-0.402-0.032-0.742-0.097-1.021c-0.065-0.279-0.158-0.506-0.278-0.68c-0.121-0.174-0.267-0.301-0.439-0.382
				C377.612,16.189,377.417,16.149,377.198,16.149z"/>
		</g>
	</g>
</g>
</svg>
