<?xml version="1.0" encoding="utf-8"?>
<!-- Generator: Adobe Illustrator 17.0.0, SVG Export Plug-In . SVG Version: 6.00 Build 0)  -->
<!DOCTYPE svg PUBLIC "-//W3C//DTD SVG 1.1//EN" "http://www.w3.org/Graphics/SVG/1.1/DTD/svg11.dtd">
<svg version="1.1" id="Layer_1" xmlns="http://www.w3.org/2000/svg" xmlns:xlink="http://www.w3.org/1999/xlink" x="0px" y="0px"
	 width="28px" height="31px" viewBox="0 0 28 31" enable-background="new 0 0 28 31" xml:space="preserve">
<path fill="#293246" d="M14.018,20.916c3.972,0,7.223-3.249,7.223-7.222c0-3.972-3.251-7.221-7.223-7.221
	c-3.972,0-7.223,3.249-7.223,7.221C6.795,17.667,10.046,20.916,14.018,20.916 M14.018,8.278c2.997,0,5.416,2.42,5.416,5.416
	c0,2.998-2.418,5.416-5.416,5.416c-2.996,0-5.416-2.418-5.416-5.416C8.603,10.698,11.023,8.278,14.018,8.278"/>
<path fill="#293246" d="M14.018,16.656c1.697,0,3.071-1.371,3.071-3.069c0-1.696-1.374-3.068-3.071-3.068
	c-1.696,0-3.067,1.372-3.067,3.068C10.951,15.285,12.323,16.656,14.018,16.656 M14.018,12.359c0.686,0,1.263,0.577,1.263,1.263
	c0,0.686-0.577,1.264-1.263,1.264c-0.686,0-1.263-0.578-1.263-1.264C12.755,12.937,13.332,12.359,14.018,12.359"/>
<path fill="#293246" d="M21.241,6.473c0.497,0,0.901,0.404,0.901,0.903c0,0.498-0.404,0.902-0.901,0.902
	c-0.5,0-0.905-0.404-0.905-0.902C20.337,6.877,20.741,6.473,21.241,6.473"/>
<path fill="#293246" d="M0.477,13.694c0,5.452,3.214,10.147,7.837,12.277c-0.651,0.506-1.085,1.263-1.085,2.166
	c0,1.48,1.228,2.708,2.709,2.708h8.124c1.48,0,2.709-1.227,2.709-2.708c0-0.866-0.434-1.661-1.085-2.166
	c4.623-2.166,7.837-6.861,7.837-12.277c0.037-7.474-6.03-13.54-13.505-13.54C6.543,0.154,0.477,6.22,0.477,13.694 M18.099,29.041
	H9.975c-0.504,0-0.903-0.397-0.903-0.903c0-0.505,0.399-0.903,0.903-0.903h8.124c0.506,0,0.905,0.398,0.905,0.903
	C19.003,28.643,18.568,29.041,18.099,29.041 M14.018,1.959c6.464,0,11.734,5.273,11.734,11.735c0,6.464-5.27,11.737-11.734,11.737
	c-6.462,0-11.734-5.273-11.734-11.737C2.284,7.232,7.556,1.959,14.018,1.959"/>
</svg>
