<?xml version="1.0" encoding="utf-8"?>
<!-- Generator: Adobe Illustrator 17.0.0, SVG Export Plug-In . SVG Version: 6.00 Build 0)  -->
<!DOCTYPE svg PUBLIC "-//W3C//DTD SVG 1.1//EN" "http://www.w3.org/Graphics/SVG/1.1/DTD/svg11.dtd">
<svg version="1.1" id="Layer_1" xmlns="http://www.w3.org/2000/svg" xmlns:xlink="http://www.w3.org/1999/xlink" x="0px" y="0px"
	 width="94px" height="79px" viewBox="0 0 94 79" enable-background="new 0 0 94 79" xml:space="preserve">
<g>
	<g>
		<g>
			<path fill="none" stroke="#302F2F" stroke-miterlimit="10" d="M63.111,76.387l-0.541-5.826c2.043-0.107,3.844-1.119,5.006-2.645
				c1.414,0.81,3.049,1.282,4.801,1.282c5.041,0,9.178-3.872,9.609-8.799c4.203-0.37,7.631-3.426,8.549-7.445
				c1.598-2.479,2.525-5.43,2.525-8.598c0-1.377-0.178-2.716-0.504-3.989c0.326-1.279,0.504-2.613,0.504-3.996
				c0-6.442-3.828-11.987-9.334-14.487c-1.23-5.435-5.242-9.817-10.463-11.562c-2.852-4.304-7.736-7.143-13.277-7.143
				c-1.129,0-2.23,0.119-3.293,0.345c-1.021-1.792-2.943-2.997-5.152-2.997c-1.895,0-3.572,0.886-4.656,2.267
				c-1.32-0.738-2.846-1.161-4.465-1.161c-2.471,0-4.711,0.982-6.367,2.573c-1.047-0.425-2.203-0.659-3.41-0.659
				c-3.174,0-5.971,1.612-7.619,4.063c-0.685-0.086-1.381-0.141-2.09-0.141c-5.957,0-11.148,3.274-13.877,8.118
				c-4.838,2.731-8.117,7.92-8.117,13.875c0,2.908,0.783,5.628,2.139,7.971c0.938,7.899,7.656,14.029,15.803,14.029
				c0.178,0,0.354-0.012,0.527-0.017c2.65,5.103,7.981,8.59,14.125,8.59c3.291,0,6.346-0.999,8.887-2.707
				c1.807,3.75,5.037,6.681,8.994,8.091l8.621,12.876L63.111,76.387z"/>
		</g>
	</g>
	<g>
		<path fill="none" stroke="#302F2F" stroke-miterlimit="10" d="M51.879,34.399v-6.913h-2.473c-0.307-1.123-0.76-2.186-1.338-3.168
			l1.767-1.766l-4.889-4.888l-1.826,1.827c-0.969-0.537-2.01-0.956-3.107-1.235V15.62h-6.912v2.761
			c-1.041,0.305-2.029,0.735-2.943,1.273l-1.99-1.99l-4.889,4.888l2.051,2.05c-0.5,0.901-0.896,1.868-1.174,2.884h-2.922v6.913
			h2.922c0.277,1.016,0.674,1.982,1.174,2.883l-2.051,2.05l4.889,4.888l1.99-1.99c0.914,0.539,1.902,0.968,2.943,1.273v2.761h6.912
			v-2.636c1.098-0.279,2.139-0.698,3.107-1.234l1.826,1.827l4.889-4.888l-1.767-1.766c0.578-0.981,1.031-2.044,1.338-3.167H51.879z"
			/>
		<circle fill="none" stroke="#302F2F" stroke-miterlimit="10" cx="36.558" cy="30.942" r="7.511"/>
	</g>
	<g>
		<path fill="none" stroke="#302F2F" stroke-miterlimit="10" d="M75.539,42.071v-4.927h-1.764c-0.219-0.801-0.541-1.558-0.951-2.257
			l1.258-1.259L70.6,30.145l-1.303,1.302c-0.689-0.382-1.432-0.681-2.215-0.879v-1.879h-4.926v1.968
			c-0.742,0.217-1.445,0.524-2.098,0.907l-1.42-1.418l-3.482,3.484l1.461,1.461c-0.355,0.643-0.639,1.331-0.836,2.055h-2.082v4.927
			h2.082c0.197,0.724,0.48,1.413,0.836,2.055l-1.461,1.462l3.482,3.483l1.42-1.418c0.652,0.383,1.355,0.69,2.098,0.907v1.968h4.926
			V48.65c0.783-0.199,1.525-0.497,2.215-0.88l1.303,1.302l3.482-3.483l-1.258-1.259c0.41-0.7,0.732-1.458,0.951-2.258H75.539z"/>
		<circle fill="none" stroke="#302F2F" stroke-miterlimit="10" cx="64.619" cy="39.609" r="5.354"/>
	</g>
</g>
</svg>
