<?xml version="1.0" encoding="utf-8"?>
<!-- Generator: Adobe Illustrator 17.0.0, SVG Export Plug-In . SVG Version: 6.00 Build 0)  -->
<!DOCTYPE svg PUBLIC "-//W3C//DTD SVG 1.1//EN" "http://www.w3.org/Graphics/SVG/1.1/DTD/svg11.dtd">
<svg version="1.1" id="Layer_1" xmlns="http://www.w3.org/2000/svg" xmlns:xlink="http://www.w3.org/1999/xlink" x="0px" y="0px"
	 width="105px" height="100px" viewBox="0 0 105 100" enable-background="new 0 0 105 100" xml:space="preserve">
<g>
	<g>
		<path fill="none" stroke="#302F2F" stroke-width="0.5" stroke-miterlimit="10" d="M25.603,30.966H1.647
			c-0.559,0-1.012,0.452-1.012,1.011v23.954c0,0.561,0.454,1.012,1.012,1.012h23.955c0.558,0,1.012-0.451,1.012-1.012V31.977
			C26.614,31.418,26.16,30.966,25.603,30.966z M24.59,54.921H2.66V32.988h21.93V54.921L24.59,54.921z M13.625,51.671
			c4.254,0,7.716-3.462,7.716-7.717c0-4.255-3.462-7.715-7.716-7.715c-4.253,0-7.716,3.461-7.716,7.715
			C5.908,48.209,9.371,51.671,13.625,51.671z M12.613,37.336v1.185c0,0.558,0.452,1.012,1.012,1.012
			c0.558,0,1.012-0.454,1.012-1.012v-1.185c3.217,0.491,5.692,3.268,5.692,6.618c0,3.353-2.475,6.129-5.692,6.618v-1.184
			c0-0.562-0.454-1.013-1.012-1.013c-0.56,0-1.012,0.452-1.012,1.013v1.184c-3.216-0.489-5.691-3.264-5.691-6.618
			C6.921,40.604,9.396,37.827,12.613,37.336z M9.639,43.955c0-0.559,0.453-1.012,1.012-1.012s1.011,0.452,1.011,1.012
			c0,0.559-0.453,1.012-1.011,1.012S9.639,44.513,9.639,43.955z M15.585,43.955c0-0.559,0.453-1.012,1.012-1.012
			c0.559,0,1.012,0.452,1.012,1.012c0,0.559-0.453,1.012-1.012,1.012C16.038,44.966,15.585,44.513,15.585,43.955z"/>
	</g>
	<g>
		<path fill="none" stroke="#302F2F" stroke-width="0.25" stroke-miterlimit="10" d="M28.19,78.385h2.434
			c0.325,0,0.551-0.226,0.551-0.551c0-0.323-0.226-0.549-0.551-0.549H28.19c-0.324,0-0.551,0.226-0.551,0.549
			C27.639,78.159,27.866,78.385,28.19,78.385z"/>
		<path fill="none" stroke="#302F2F" stroke-width="0.25" stroke-miterlimit="10" d="M29.407,80.731
			c-2.942,0-5.427,2.484-5.427,5.427c0,0.303,0.211,0.512,0.513,0.512c0.302,0,0.513-0.209,0.513-0.512
			c0-2.385,2.015-4.401,4.401-4.401c2.426,0,4.401,1.974,4.401,4.401c0,0.303,0.211,0.512,0.512,0.512
			c0.303,0,0.513-0.209,0.513-0.512C34.835,83.166,32.399,80.731,29.407,80.731z"/>
		<path fill="none" stroke="#302F2F" stroke-width="0.25" stroke-miterlimit="10" d="M29.407,78.889
			c-4.086,0-7.407,3.325-7.407,7.41c0,4.084,3.322,7.407,7.407,7.407c4.084,0,7.407-3.323,7.407-7.407
			C36.814,82.214,33.491,78.889,29.407,78.889z M29.407,92.685c-3.5,0-6.347-2.846-6.347-6.346c0-3.5,2.847-6.349,6.347-6.349
			c3.499,0,6.347,2.849,6.347,6.349C35.753,89.839,32.906,92.685,29.407,92.685z"/>
		<path fill="none" stroke="#302F2F" stroke-width="0.25" stroke-miterlimit="10" d="M29.407,73.21
			c-7.24,0-13.129,5.89-13.129,13.129c0,7.239,5.889,13.128,13.129,13.128c7.24,0,13.129-5.889,13.129-13.128
			C42.535,79.1,36.647,73.21,29.407,73.21z M29.407,98.367c-6.632,0-12.027-5.396-12.027-12.028c0-6.633,5.396-12.028,12.027-12.028
			c6.632,0,12.027,5.395,12.027,12.028C41.434,92.971,36.039,98.367,29.407,98.367z"/>
		<path fill="none" stroke="#302F2F" stroke-width="0.25" stroke-miterlimit="10" d="M29.407,75.695
			c-5.869,0-10.644,4.774-10.644,10.644c0,5.868,4.775,10.643,10.644,10.643c5.869,0,10.643-4.774,10.643-10.643
			C40.05,80.469,35.275,75.695,29.407,75.695z M29.407,95.964c-5.307,0-9.625-4.32-9.625-9.626c0-5.308,4.318-9.626,9.625-9.626
			c5.307,0,9.625,4.317,9.625,9.626C39.032,91.645,34.714,95.964,29.407,95.964z"/>
		<path fill="none" stroke="#302F2F" stroke-width="0.25" stroke-miterlimit="10" d="M28.19,84.977h-0.609
			c-0.324,0-0.55,0.225-0.55,0.549c0,0.325,0.227,0.551,0.55,0.551h0.463v1.884c0,0.324,0.227,0.55,0.551,0.55
			c0.325,0,0.551-0.226,0.551-0.55v-2.029C29.146,85.368,28.752,84.977,28.19,84.977z"/>
		<path fill="none" stroke="#302F2F" stroke-width="0.25" stroke-miterlimit="10" d="M30.623,84.977h-0.811
			c-0.324,0-0.551,0.225-0.551,0.549c0,0.325,0.227,0.551,0.551,0.551h0.666v0.116h-0.26c-0.563,0-0.957,0.394-0.957,0.955v0.406
			c0,0.564,0.394,0.956,0.957,0.956h0.812c0.324,0,0.551-0.226,0.551-0.55c0-0.325-0.227-0.551-0.551-0.551h-0.667v-0.115h0.26
			c0.563,0,0.957-0.394,0.957-0.957v-0.406C31.581,85.368,31.187,84.977,30.623,84.977z"/>
	</g>
	<g>
		<path fill="none" stroke="#302F2F" stroke-width="0.5" stroke-miterlimit="10" d="M69.257,42.25
			c0.026,0.237,1.242,0.224,2.325,0.409c1.08,0.184,1.437,0.552,1.444,0.567l0.408,0.852c-0.071-0.047-0.165-0.057-0.246-0.018
			l-0.634,0.305c-0.124,0.059-0.176,0.21-0.117,0.334l1.474,3.075c0.059,0.125,0.209,0.179,0.333,0.118l0.634-0.303
			c0.082-0.04,0.133-0.12,0.14-0.203l0.942,1.965c0.166,0.346,0.586,0.494,0.933,0.327l9.987-4.766
			c0.153,0.123,0.322,0.227,0.502,0.312l0,0v7.809c0,0.596,0.488,1.084,1.084,1.084c0.596,0,1.083-0.488,1.083-1.084v-2.809
			l12.146,0.624v5.329h2.669V45.051h-2.669v2.229L89.55,48.087v-2.863c0.83-0.386,1.402-1.2,1.402-2.143
			c0-0.036-0.001-0.073-0.003-0.11l8.079-3.856c0.348-0.165,0.495-0.586,0.329-0.932l-3.77-7.867
			c-0.166-0.348-0.586-0.495-0.933-0.329L72.635,40.496l-0.002,0.002C72.53,40.543,69.23,42.016,69.257,42.25z M86.103,41.561
			c0-0.934,0.757-1.692,1.691-1.692c0.934,0,1.692,0.759,1.692,1.692c0,0.935-0.757,1.691-1.692,1.691
			C86.86,43.252,86.103,42.496,86.103,41.561z"/>
	</g>
	<g id="bulb_1_">
		<path fill="none" stroke="#302F2F" stroke-width="0.5" stroke-miterlimit="10" d="M74.328,73.554c-4.932,0-8.93,3.998-8.93,8.931
			c0,3.274,2.994,6.741,4.084,9.788c1.626,4.542,1.446,7.262,4.845,7.262c3.451,0,3.22-2.705,4.847-7.243
			c1.093-3.053,4.084-6.56,4.084-9.807C83.259,77.551,79.26,73.554,74.328,73.554z M76.433,95.618l-4.025,0.503
			c-0.144-0.417-0.298-0.904-0.486-1.537c-0.002-0.01-0.006-0.017-0.007-0.027l5.023-0.628c-0.071,0.24-0.147,0.491-0.213,0.716
			C76.618,95.011,76.523,95.328,76.433,95.618z M71.678,93.776c-0.146-0.49-0.313-1.003-0.499-1.549h6.305
			c-0.101,0.29-0.2,0.583-0.286,0.859L71.678,93.776z M74.328,97.91c-0.822,0-1.2-0.095-1.621-1.016l3.44-0.431
			C75.649,97.806,75.287,97.91,74.328,97.91z M78.122,90.602h-7.577c-0.405-0.877-0.89-1.754-1.37-2.611
			c-1.059-1.895-2.153-3.856-2.153-5.507c0-4.028,3.278-7.307,7.306-7.307c4.03,0,7.307,3.279,7.307,7.307
			c0,1.639-1.095,3.61-2.156,5.516C79.005,88.857,78.523,89.731,78.122,90.602z"/>
		<path fill="none" stroke="#302F2F" stroke-width="0.5" stroke-miterlimit="10" d="M74.328,77.612
			c-2.686,0-4.871,2.185-4.871,4.872c0,0.224,0.182,0.405,0.406,0.405c0.224,0,0.406-0.182,0.406-0.405
			c0-2.238,1.821-4.059,4.059-4.059c0.224,0,0.406-0.182,0.406-0.406C74.734,77.795,74.552,77.612,74.328,77.612z"/>
	</g>
	<g>
		<g>
			<path fill="none" stroke="#302F2F" stroke-width="0.5" stroke-miterlimit="10" d="M45.079,10.188
				c-0.242,0-0.482-0.102-0.654-0.298c-0.313-0.36-0.275-0.906,0.086-1.22c2.321-2.017,5.29-3.127,8.361-3.127
				c3.071,0,6.041,1.11,8.362,3.127c0.361,0.314,0.399,0.86,0.086,1.22c-0.313,0.362-0.861,0.399-1.221,0.086
				c-2.006-1.743-4.573-2.705-7.226-2.705c-2.654,0-5.221,0.962-7.228,2.705C45.483,10.119,45.28,10.188,45.079,10.188z"/>
		</g>
		<g>
			<path fill="none" stroke="#302F2F" stroke-width="0.5" stroke-miterlimit="10" d="M47.329,12.783
				c-0.241,0-0.482-0.102-0.653-0.299c-0.314-0.361-0.275-0.907,0.086-1.22c1.696-1.476,3.867-2.288,6.112-2.288
				c2.244,0,4.414,0.813,6.111,2.287c0.361,0.313,0.399,0.86,0.086,1.221c-0.313,0.359-0.86,0.4-1.221,0.086
				c-1.382-1.2-3.149-1.861-4.976-1.861c-1.828,0-3.595,0.66-4.977,1.861C47.733,12.711,47.53,12.783,47.329,12.783z"/>
		</g>
		<g>
			<path fill="none" stroke="#302F2F" stroke-width="0.5" stroke-miterlimit="10" d="M49.578,15.372
				c-0.243,0-0.483-0.101-0.654-0.298c-0.313-0.36-0.274-0.906,0.087-1.221c1.071-0.931,2.443-1.442,3.863-1.442
				c1.42,0,2.792,0.511,3.861,1.442c0.362,0.315,0.4,0.861,0.086,1.221c-0.313,0.361-0.86,0.399-1.221,0.086
				c-0.756-0.655-1.725-1.017-2.728-1.017c-1.003,0-1.971,0.362-2.727,1.018C49.982,15.303,49.78,15.372,49.578,15.372z"/>
		</g>
		<g>
			<path fill="none" stroke="#302F2F" stroke-width="0.5" stroke-miterlimit="10" d="M66.456,0.466H39.29
				c-0.638,0-1.155,0.517-1.155,1.154v17.671c0,0.64,0.517,1.155,1.155,1.155h12.575v2.642h-5.098c-0.556,0-1.01,0.454-1.01,1.01
				c0,0.557,0.453,1.009,1.01,1.009h12.211c0.56,0,1.01-0.452,1.01-1.009c0-0.556-0.451-1.01-1.01-1.01h-5.094v-2.642h12.573
				c0.637,0,1.154-0.516,1.154-1.155V1.62C67.61,0.984,67.093,0.466,66.456,0.466z M65.302,18.14H40.444V2.775h24.858V18.14z"/>
		</g>
	</g>
	<g>
		<path fill="#302F2F" d="M51.784,95.634c-0.697,0-1.404-0.014-2.099-0.047l0.048-1.043c1.376,0.063,2.781,0.061,4.153-0.003
			l0.049,1.045C53.225,95.618,52.501,95.634,51.784,95.634z M45.453,95.19c-1.4-0.199-2.804-0.467-4.174-0.797l0.245-1.017
			c1.338,0.323,2.71,0.586,4.077,0.779L45.453,95.19z M58.167,95.182l-0.148-1.035c1.367-0.195,2.737-0.458,4.076-0.782l0.246,1.015
			C60.97,94.712,59.566,94.982,58.167,95.182z M16.685,78.605c-0.873-1.108-1.705-2.271-2.47-3.456l0.878-0.568
			c0.748,1.16,1.561,2.296,2.414,3.378L16.685,78.605z M86.914,78.567l-0.821-0.646c0.853-1.084,1.664-2.222,2.41-3.379l0.878,0.563
			C88.618,76.291,87.787,77.457,86.914,78.567z M12.082,71.47c-0.65-1.255-1.247-2.556-1.771-3.864l0.97-0.39
			c0.513,1.278,1.095,2.548,1.73,3.772L12.082,71.47z M91.511,71.425l-0.929-0.48c0.634-1.227,1.214-2.497,1.726-3.775l0.97,0.389
			C92.754,68.867,92.159,70.17,91.511,71.425z M8.916,63.588c-0.398-1.352-0.736-2.744-1.003-4.13l1.026-0.198
			c0.261,1.355,0.591,2.712,0.98,4.032L8.916,63.588z M94.667,63.54l-1.002-0.294c0.386-1.322,0.714-2.68,0.974-4.035l1.027,0.197
			C95.4,60.794,95.064,62.186,94.667,63.54z M90.536,30.876c-0.634-1.221-1.336-2.429-2.086-3.587l0.877-0.569
			c0.768,1.189,1.487,2.424,2.136,3.675L90.536,30.876z M17.446,24.028l-0.822-0.644c0.872-1.111,1.808-2.192,2.782-3.217
			l0.756,0.721C19.212,21.887,18.297,22.944,17.446,24.028z M86.032,23.912c-0.855-1.081-1.773-2.134-2.726-3.131l0.755-0.724
			c0.977,1.02,1.916,2.1,2.791,3.208L86.032,23.912z M23.163,18.017l-0.686-0.789c1.066-0.928,2.188-1.813,3.336-2.635l0.609,0.851
			C25.3,16.246,24.204,17.113,23.163,18.017z M80.296,17.921c-1.044-0.901-2.144-1.764-3.268-2.564l0.606-0.85
			c1.151,0.817,2.276,1.7,3.345,2.622L80.296,17.921z M29.909,13.192l-0.524-0.904c1.221-0.71,2.492-1.368,3.774-1.958l0.436,0.952
			C32.342,11.857,31.102,12.498,29.909,13.192z M73.533,13.116c-1.196-0.686-2.438-1.326-3.692-1.898l0.433-0.95
			c1.285,0.584,2.556,1.237,3.781,1.943L73.533,13.116z"/>
	</g>
</g>
</svg>
