<?xml version="1.0" encoding="utf-8"?>
<!-- Generator: Adobe Illustrator 17.0.0, SVG Export Plug-In . SVG Version: 6.00 Build 0)  -->
<!DOCTYPE svg PUBLIC "-//W3C//DTD SVG 1.1//EN" "http://www.w3.org/Graphics/SVG/1.1/DTD/svg11.dtd">
<svg version="1.1" id="Layer_1" xmlns="http://www.w3.org/2000/svg" xmlns:xlink="http://www.w3.org/1999/xlink" x="0px" y="0px"
	 width="235px" height="55px" viewBox="0 0 235 55" enable-background="new 0 0 235 55" xml:space="preserve">
<g>
	<g>
		<path fill="#F2F2F2" d="M38.85,14.392c0.593,0.04,1.229,0.054,1.856,0.133c0.847,0.107,1.677,0.301,2.473,0.628
			c0.905,0.373,1.729,0.865,2.389,1.592c0.333,0.368,0.66,0.758,0.904,1.186c0.448,0.786,0.752,1.636,0.885,2.538
			c0.064,0.436,0.113,0.874,0.167,1.311c0.024,0.198-0.024,0.255-0.223,0.264c-0.093,0.004-0.186,0.001-0.28,0.002
			c-0.24,0.004-0.265-0.016-0.288-0.258c-0.027-0.283-0.032-0.569-0.078-0.848c-0.064-0.393-0.153-0.783-0.238-1.173
			c-0.112-0.518-0.35-0.988-0.613-1.437c-0.198-0.338-0.441-0.657-0.703-0.949c-0.246-0.274-0.522-0.534-0.825-0.742
			c-0.37-0.254-0.774-0.463-1.177-0.663c-0.295-0.146-0.603-0.282-0.921-0.36c-0.574-0.142-1.157-0.247-1.74-0.351
			c-0.778-0.14-1.567-0.122-2.351-0.098c-1.456,0.045-2.872,0.298-4.195,0.939c-1.087,0.527-1.974,1.274-2.508,2.384
			c-0.31,0.643-0.468,1.326-0.488,2.04c-0.017,0.601-0.003,1.199,0.173,1.781c0.15,0.496,0.337,0.976,0.693,1.369
			c0.229,0.253,0.434,0.536,0.696,0.749c0.306,0.25,0.654,0.45,0.996,0.652c0.655,0.387,1.376,0.621,2.1,0.834
			c0.505,0.148,1.024,0.253,1.536,0.38c0.314,0.078,0.627,0.162,0.942,0.239c0.36,0.088,0.721,0.171,1.082,0.257
			c0.451,0.108,0.902,0.217,1.352,0.329c0.597,0.149,1.197,0.286,1.787,0.456c0.607,0.175,1.21,0.367,1.804,0.583
			c0.428,0.156,0.858,0.328,1.25,0.556c0.601,0.35,1.152,0.771,1.595,1.327c0.32,0.403,0.574,0.844,0.732,1.318
			c0.174,0.525,0.287,1.08,0.343,1.63c0.057,0.552,0.042,1.117,0.003,1.672c-0.036,0.509-0.182,1.002-0.36,1.483
			c-0.156,0.422-0.356,0.823-0.626,1.179c-0.289,0.382-0.565,0.779-0.965,1.066c-0.305,0.219-0.582,0.478-0.893,0.687
			c-0.257,0.173-0.54,0.311-0.823,0.441c-0.347,0.16-0.697,0.329-1.062,0.435c-0.64,0.186-1.288,0.348-1.94,0.482
			c-0.77,0.158-1.556,0.17-2.341,0.171c-0.769,0.001-1.535-0.038-2.29-0.184c-0.643-0.124-1.291-0.25-1.913-0.448
			c-0.525-0.167-1.045-0.375-1.514-0.686c-0.357-0.237-0.757-0.421-1.075-0.7c-0.428-0.377-0.804-0.815-1.183-1.244
			c-0.324-0.367-0.563-0.798-0.755-1.244c-0.194-0.45-0.358-0.916-0.494-1.388c-0.114-0.394-0.196-0.803-0.242-1.21
			c-0.062-0.554-0.076-1.113-0.108-1.67c-0.006-0.101,0.048-0.149,0.15-0.147c0.157,0.002,0.315,0.002,0.472,0
			c0.105-0.001,0.142,0.054,0.148,0.151c0.022,0.412,0.021,0.828,0.077,1.235c0.073,0.527,0.156,1.059,0.302,1.569
			c0.137,0.477,0.323,0.949,0.558,1.384c0.248,0.46,0.51,0.919,0.885,1.303c0.465,0.475,0.974,0.883,1.545,1.229
			c0.797,0.483,1.66,0.765,2.559,0.968c0.739,0.167,1.487,0.257,2.243,0.274c0.656,0.014,1.315,0.022,1.97-0.011
			c0.42-0.021,0.838-0.11,1.252-0.191c0.397-0.078,0.789-0.183,1.181-0.284c0.123-0.031,0.239-0.089,0.36-0.129
			c0.571-0.188,1.105-0.457,1.604-0.787c0.347-0.23,0.677-0.49,0.985-0.77c0.205-0.186,0.346-0.442,0.537-0.646
			c0.329-0.353,0.538-0.775,0.683-1.221c0.136-0.416,0.254-0.849,0.299-1.282c0.05-0.488,0.046-0.989,0-1.479
			c-0.06-0.64-0.244-1.263-0.577-1.814c-0.234-0.387-0.518-0.762-0.845-1.072c-0.454-0.43-0.977-0.784-1.563-1.024
			c-0.55-0.226-1.1-0.457-1.662-0.652c-0.388-0.134-0.795-0.213-1.194-0.313c-0.394-0.098-0.787-0.197-1.183-0.288
			c-0.595-0.137-1.193-0.262-1.787-0.403c-0.971-0.232-1.944-0.456-2.908-0.715c-0.705-0.19-1.39-0.443-2.057-0.748
			c-0.549-0.251-1.03-0.598-1.522-0.937c-0.303-0.209-0.502-0.499-0.722-0.769c-0.466-0.571-0.763-1.231-0.901-1.959
			c-0.226-1.193-0.204-2.374,0.173-3.534c0.456-1.405,1.383-2.422,2.66-3.129c1.233-0.683,2.572-1.016,3.965-1.147
			C37.656,14.442,38.232,14.427,38.85,14.392z"/>
		<path fill="#F2F2F2" d="M15.559,14.393c1.242-0.012,2.453,0.161,3.639,0.517c1.514,0.454,2.855,1.212,4.012,2.293
			c0.958,0.895,1.723,1.931,2.329,3.094c0.71,1.362,1.146,2.81,1.411,4.315c0.151,0.854,0.232,1.714,0.215,2.582
			c-0.011,0.523,0.017,1.048-0.015,1.57c-0.031,0.497-0.108,0.993-0.182,1.486c-0.065,0.43-0.133,0.862-0.239,1.283
			c-0.129,0.512-0.287,1.017-0.456,1.517c-0.132,0.39-0.291,0.773-0.458,1.15c-0.117,0.265-0.273,0.513-0.401,0.774
			c-0.275,0.56-0.644,1.058-1.021,1.549c-0.255,0.331-0.515,0.663-0.813,0.955c-0.36,0.353-0.753,0.675-1.148,0.989
			c-0.276,0.219-0.571,0.419-0.875,0.599c-0.318,0.188-0.654,0.346-0.985,0.51c-0.69,0.342-1.42,0.561-2.17,0.73
			c-0.802,0.181-1.611,0.289-2.435,0.275c-0.464-0.008-0.932,0.026-1.393-0.017c-0.716-0.067-1.432-0.159-2.123-0.373
			c-0.449-0.139-0.896-0.288-1.334-0.457c-0.315-0.122-0.616-0.282-0.92-0.43c-0.614-0.3-1.158-0.71-1.683-1.139
			c-0.696-0.569-1.294-1.236-1.821-1.966c-0.683-0.946-1.209-1.974-1.61-3.067c-0.464-1.265-0.747-2.569-0.862-3.91
			c-0.134-1.56-0.125-3.119,0.169-4.662C4.54,23.776,4.73,23,4.947,22.234c0.126-0.445,0.319-0.875,0.521-1.293
			c0.286-0.59,0.591-1.171,0.921-1.737c0.174-0.299,0.41-0.562,0.628-0.833c0.203-0.252,0.418-0.495,0.632-0.738
			c0.384-0.437,0.831-0.804,1.305-1.135c0.422-0.295,0.848-0.59,1.297-0.839c0.385-0.213,0.802-0.37,1.212-0.535
			c0.792-0.32,1.622-0.499,2.464-0.611C14.466,14.44,15.015,14.43,15.559,14.393z M15.712,15.124
			c-0.625,0.052-1.255,0.072-1.874,0.162c-0.799,0.117-1.576,0.334-2.329,0.637c-0.664,0.267-1.288,0.607-1.868,1.021
			c-0.292,0.209-0.554,0.459-0.84,0.677c-0.572,0.435-1.024,0.984-1.436,1.558c-0.347,0.484-0.651,1.003-0.925,1.532
			c-0.276,0.535-0.531,1.088-0.727,1.656c-0.696,2.019-0.924,4.103-0.788,6.231c0.069,1.085,0.244,2.151,0.528,3.199
			c0.39,1.435,0.985,2.774,1.865,3.979c0.935,1.282,2.098,2.292,3.529,2.996c1.131,0.556,2.323,0.891,3.569,1.014
			c0.873,0.086,1.754,0.091,2.627-0.038c0.424-0.062,0.857-0.094,1.267-0.207c0.598-0.165,1.189-0.365,1.764-0.595
			c0.897-0.359,1.692-0.898,2.419-1.53c0.783-0.68,1.439-1.473,1.972-2.362c0.232-0.387,0.419-0.801,0.627-1.203
			c0.352-0.681,0.583-1.408,0.789-2.14c0.229-0.816,0.363-1.654,0.444-2.499c0.074-0.771,0.104-1.54,0.074-2.316
			c-0.028-0.74-0.107-1.47-0.217-2.199c-0.2-1.329-0.596-2.599-1.185-3.804c-0.607-1.241-1.407-2.339-2.445-3.263
			c-0.909-0.809-1.931-1.418-3.069-1.834C18.268,15.351,17.011,15.136,15.712,15.124z"/>
		<path fill="#F2F2F2" d="M1.152,30.977c0,2.913,0,5.825,0,8.738c0,0.273,0,0.273-0.275,0.27c-0.466-0.006-0.466-0.006-0.466-0.48
			c0-4.047,0.003-8.095,0-12.142c-0.002-1.706-0.018-3.412-0.027-5.119c-0.001-0.264,0.002-0.265,0.26-0.267
			c0.509-0.002,0.509-0.002,0.509,0.507C1.152,25.315,1.152,28.146,1.152,30.977z"/>
		<path fill="#F2F2F2" d="M1.152,16.794c0,0.518-0.004,1.036,0.002,1.553c0.002,0.16-0.057,0.222-0.215,0.211
			c-0.127-0.009-0.257-0.01-0.384,0.002c-0.134,0.012-0.174-0.043-0.173-0.168c0.004-0.436,0.002-0.873,0.001-1.309
			c-0.001-0.593-0.003-1.187-0.006-1.78c-0.002-0.277,0.032-0.316,0.304-0.315c0.526,0.002,0.47-0.053,0.471,0.463
			C1.154,15.898,1.152,16.346,1.152,16.794z"/>
	</g>
	<g>
		<path fill="#F2F2F2" d="M111.306,17.421c4.84,0,9.681,0,14.521,0c0.07,0,0.14,0.002,0.21,0.001c0.11-0.002,0.161,0.05,0.156,0.16
			c-0.002,0.046,0,0.093,0,0.14c0,7.52-0.003,15.04,0.003,22.559c0.001,1.044-0.344,1.945-1.053,2.696
			c-0.629,0.666-1.41,1.079-2.331,1.144c-0.725,0.051-1.454,0.03-2.182,0.04c-0.238,0.003-0.242,0.005-0.242,0.248
			c0,2.615-0.008,5.231,0.004,7.846c0.005,1.049-0.51,1.759-1.395,2.219c-0.941,0.489-1.935,0.532-2.93,0.178
			c-0.776-0.276-1.395-0.755-1.676-1.565c-0.08-0.232-0.117-0.49-0.118-0.736c-0.008-2.639-0.005-5.277-0.005-7.916
			c0-0.273,0-0.274-0.268-0.274c-1.817,0-3.635,0-5.452,0c-0.252,0-0.253,0.002-0.253,0.254c0,2.615-0.008,5.231,0.004,7.846
			c0.004,0.9-0.386,1.566-1.113,2.049c-1.2,0.797-2.929,0.748-4.058-0.115c-0.623-0.476-0.96-1.096-0.957-1.904
			c0.011-2.604,0.004-5.207,0.004-7.811c0-0.319,0-0.319-0.31-0.319c-0.542,0-1.083,0.001-1.625,0
			c-1.96-0.003-3.559-1.4-3.823-3.343c-0.029-0.213-0.041-0.429-0.041-0.644c-0.002-7.479-0.002-14.958-0.002-22.437
			c0-0.315,0-0.316,0.322-0.316C101.567,17.421,106.437,17.421,111.306,17.421z"/>
		<path fill="#F2F2F2" d="M103.835,4.511c-0.151-0.227-0.287-0.429-0.422-0.632c-0.643-0.964-1.285-1.929-1.93-2.892
			c-0.141-0.21-0.195-0.419-0.039-0.648c0.196-0.286,0.614-0.302,0.819-0.021c0.161,0.221,0.312,0.45,0.464,0.677
			c0.663,0.993,1.328,1.985,1.985,2.981c0.087,0.132,0.167,0.155,0.314,0.106c1.114-0.374,2.261-0.599,3.425-0.742
			c1.309-0.161,2.626-0.201,3.939-0.136c1.742,0.086,3.465,0.328,5.129,0.884c0.134,0.045,0.208,0.024,0.288-0.096
			c0.729-1.103,1.465-2.201,2.199-3.3c0.078-0.116,0.158-0.231,0.239-0.344c0.175-0.246,0.476-0.301,0.722-0.133
			c0.225,0.153,0.287,0.456,0.13,0.695c-0.335,0.511-0.677,1.019-1.016,1.527c-0.42,0.63-0.841,1.26-1.26,1.89
			c-0.124,0.185-0.118,0.201,0.079,0.287c1.184,0.514,2.263,1.191,3.231,2.048c1.077,0.953,1.939,2.067,2.608,3.338
			c0.754,1.434,1.209,2.959,1.412,4.562c0.028,0.219,0.045,0.44,0.069,0.659c0.013,0.116-0.029,0.18-0.152,0.176
			c-0.047-0.002-0.093,0-0.14,0c-9.75,0-19.5,0-29.25,0c-0.315,0-0.331-0.016-0.3-0.325c0.116-1.145,0.336-2.268,0.716-3.357
			c0.498-1.428,1.216-2.734,2.193-3.888c1.197-1.414,2.661-2.477,4.359-3.22C103.702,4.58,103.757,4.55,103.835,4.511z
			 M117.633,11.128c0.905-0.001,1.649-0.734,1.63-1.633c-0.02-0.953-0.687-1.622-1.645-1.64c-0.902-0.017-1.634,0.74-1.633,1.638
			C115.987,10.407,116.714,11.129,117.633,11.128z M106.511,9.508c0.022-0.878-0.655-1.641-1.644-1.656
			c-0.875-0.014-1.643,0.747-1.628,1.629c0.017,1.012,0.771,1.645,1.637,1.647C105.796,11.13,106.51,10.421,106.511,9.508z"/>
		<path fill="#F2F2F2" d="M88.019,27.453c0-2.393,0.011-4.787-0.005-7.18c-0.006-0.96,0.406-1.673,1.212-2.132
			c1.297-0.74,2.61-0.707,3.866,0.105c0.7,0.452,1.05,1.124,1.05,1.977c-0.004,4.804-0.009,9.608,0.004,14.412
			c0.003,0.993-0.447,1.691-1.264,2.178c-1.201,0.717-2.827,0.62-3.937-0.229c-0.603-0.461-0.93-1.067-0.927-1.846
			C88.024,32.31,88.019,29.881,88.019,27.453z"/>
		<path fill="#F2F2F2" d="M134.616,27.455c0,2.393-0.014,4.787,0.007,7.18c0.008,1.001-0.433,1.718-1.277,2.179
			c-1.218,0.667-2.456,0.646-3.661-0.052c-0.524-0.303-0.914-0.744-1.084-1.339c-0.066-0.232-0.1-0.481-0.1-0.722
			c-0.006-4.833-0.005-9.667-0.003-14.5c0-1.03,0.609-1.875,1.647-2.288c1.126-0.449,2.231-0.392,3.273,0.227
			c0.761,0.452,1.207,1.114,1.203,2.047C134.609,22.61,134.616,25.033,134.616,27.455z"/>
	</g>
	<g>
		<g>
			<path fill="#F2F2F2" d="M190.76,21.851h0.019l1.507-5.988h0.672l-1.814,6.909h-0.72l-1.602-6.103h-0.019l-1.603,6.103h-0.72
				l-1.785-6.909h0.652l1.488,5.988h0.019l1.602-5.988h0.729L190.76,21.851z"/>
			<path fill="#F2F2F2" d="M194.138,20.421c0,0.269,0.035,0.523,0.105,0.763c0.07,0.24,0.174,0.448,0.312,0.624
				c0.137,0.176,0.312,0.317,0.523,0.422c0.211,0.106,0.454,0.159,0.729,0.159c0.378,0,0.7-0.099,0.969-0.298
				c0.269-0.198,0.448-0.48,0.537-0.845h0.643c-0.07,0.237-0.163,0.456-0.278,0.658c-0.115,0.201-0.259,0.378-0.432,0.528
				c-0.173,0.15-0.378,0.267-0.614,0.35c-0.237,0.083-0.512,0.125-0.825,0.125c-0.397,0-0.739-0.067-1.027-0.201
				c-0.288-0.134-0.524-0.318-0.71-0.552c-0.186-0.233-0.323-0.509-0.413-0.825c-0.09-0.317-0.134-0.657-0.134-1.022
				c0-0.365,0.053-0.707,0.158-1.027c0.106-0.32,0.256-0.6,0.451-0.839c0.195-0.24,0.433-0.429,0.715-0.566
				c0.282-0.137,0.601-0.206,0.96-0.206c0.684,0,1.222,0.235,1.612,0.705c0.39,0.47,0.582,1.153,0.576,2.049H194.138z
				 M197.381,19.941c0-0.243-0.034-0.472-0.101-0.686c-0.067-0.214-0.166-0.4-0.297-0.557c-0.131-0.157-0.296-0.281-0.494-0.374
				c-0.198-0.093-0.426-0.139-0.681-0.139s-0.481,0.048-0.677,0.144c-0.195,0.096-0.361,0.224-0.499,0.384
				c-0.137,0.16-0.248,0.346-0.331,0.557c-0.084,0.211-0.138,0.435-0.163,0.672H197.381z"/>
			<path fill="#F2F2F2" d="M199.761,22.772h-0.576v-6.909h0.576v2.735c0.185-0.307,0.44-0.539,0.763-0.695
				c0.323-0.157,0.66-0.235,1.012-0.235c0.377,0,0.705,0.072,0.984,0.216c0.278,0.144,0.508,0.336,0.691,0.576
				s0.318,0.52,0.408,0.839c0.089,0.32,0.134,0.653,0.134,0.998c0,0.365-0.042,0.707-0.125,1.027
				c-0.083,0.32-0.216,0.597-0.398,0.83c-0.182,0.233-0.414,0.417-0.695,0.552c-0.282,0.134-0.624,0.201-1.027,0.201
				c-0.16,0-0.323-0.023-0.489-0.067c-0.167-0.045-0.328-0.109-0.485-0.192c-0.157-0.083-0.301-0.187-0.431-0.312
				c-0.131-0.125-0.239-0.27-0.322-0.437h-0.019V22.772z M199.761,20.268c0,0.301,0.037,0.581,0.111,0.839
				c0.073,0.259,0.18,0.483,0.321,0.672c0.141,0.189,0.317,0.338,0.528,0.446c0.211,0.109,0.451,0.163,0.72,0.163
				c0.243,0,0.467-0.043,0.672-0.13c0.205-0.086,0.384-0.212,0.537-0.379c0.154-0.166,0.274-0.369,0.36-0.609
				c0.086-0.24,0.13-0.517,0.13-0.83c0.012-0.314-0.013-0.606-0.077-0.878c-0.064-0.272-0.166-0.51-0.307-0.715
				c-0.141-0.205-0.322-0.366-0.542-0.485c-0.221-0.118-0.478-0.177-0.772-0.177c-0.262,0-0.497,0.056-0.705,0.168
				c-0.208,0.112-0.384,0.262-0.528,0.451c-0.144,0.189-0.254,0.41-0.331,0.662C199.799,19.719,199.761,19.986,199.761,20.268z"/>
			<path fill="#F2F2F2" d="M207.102,22.772l2.716-6.909h0.739l2.648,6.909h-0.672l-0.797-2.169h-3.147l-0.816,2.169H207.102z
				 M208.809,20.047h2.706l-1.353-3.627L208.809,20.047z"/>
			<path fill="#F2F2F2" d="M214.692,24.73h-0.576v-6.928h0.576v0.873h0.019c0.083-0.16,0.191-0.304,0.322-0.432
				c0.131-0.128,0.275-0.233,0.431-0.317c0.157-0.083,0.318-0.147,0.485-0.192c0.166-0.045,0.329-0.067,0.489-0.067
				c0.403,0,0.745,0.067,1.027,0.201c0.281,0.134,0.513,0.318,0.695,0.552c0.182,0.233,0.315,0.51,0.398,0.83
				c0.083,0.32,0.125,0.662,0.125,1.027c0,0.346-0.045,0.678-0.134,0.998c-0.09,0.32-0.226,0.6-0.408,0.84
				c-0.182,0.24-0.413,0.431-0.691,0.576c-0.278,0.144-0.606,0.216-0.984,0.216c-0.352,0-0.69-0.078-1.012-0.235
				c-0.323-0.157-0.577-0.389-0.763-0.696V24.73z M214.692,20.306c0,0.282,0.038,0.549,0.115,0.801
				c0.077,0.253,0.187,0.474,0.331,0.662c0.144,0.189,0.32,0.339,0.528,0.451c0.208,0.112,0.443,0.168,0.705,0.168
				c0.294,0,0.552-0.059,0.772-0.178c0.221-0.118,0.401-0.28,0.542-0.485c0.141-0.205,0.243-0.443,0.307-0.715
				c0.064-0.272,0.089-0.564,0.077-0.878c0-0.314-0.043-0.59-0.13-0.83c-0.086-0.24-0.206-0.443-0.36-0.61
				c-0.153-0.166-0.333-0.292-0.537-0.379c-0.205-0.086-0.429-0.129-0.672-0.129c-0.269,0-0.509,0.054-0.72,0.163
				c-0.211,0.109-0.387,0.258-0.528,0.446c-0.141,0.189-0.248,0.413-0.321,0.672C214.728,19.726,214.692,20.006,214.692,20.306z"/>
			<path fill="#F2F2F2" d="M220.555,24.73h-0.576v-6.928h0.576v0.873h0.019c0.083-0.16,0.191-0.304,0.322-0.432
				c0.131-0.128,0.275-0.233,0.431-0.317c0.157-0.083,0.318-0.147,0.485-0.192c0.166-0.045,0.329-0.067,0.489-0.067
				c0.403,0,0.745,0.067,1.027,0.201c0.281,0.134,0.513,0.318,0.695,0.552c0.182,0.233,0.315,0.51,0.398,0.83
				c0.083,0.32,0.125,0.662,0.125,1.027c0,0.346-0.045,0.678-0.134,0.998c-0.09,0.32-0.226,0.6-0.408,0.84
				c-0.182,0.24-0.413,0.431-0.691,0.576c-0.278,0.144-0.606,0.216-0.984,0.216c-0.352,0-0.69-0.078-1.012-0.235
				c-0.323-0.157-0.577-0.389-0.763-0.696V24.73z M220.555,20.306c0,0.282,0.038,0.549,0.115,0.801
				c0.077,0.253,0.187,0.474,0.331,0.662c0.144,0.189,0.32,0.339,0.528,0.451c0.208,0.112,0.443,0.168,0.705,0.168
				c0.294,0,0.552-0.059,0.772-0.178c0.221-0.118,0.401-0.28,0.542-0.485c0.141-0.205,0.243-0.443,0.307-0.715
				c0.064-0.272,0.089-0.564,0.077-0.878c0-0.314-0.043-0.59-0.13-0.83c-0.086-0.24-0.206-0.443-0.36-0.61
				c-0.153-0.166-0.333-0.292-0.537-0.379c-0.205-0.086-0.429-0.129-0.672-0.129c-0.269,0-0.509,0.054-0.72,0.163
				c-0.211,0.109-0.387,0.258-0.528,0.446c-0.141,0.189-0.248,0.413-0.321,0.672C220.591,19.726,220.555,20.006,220.555,20.306z"/>
		</g>
		<g>
			<path fill="#F2F2F2" d="M233.705,40.404c0,1.629-1.328,2.953-2.961,2.953h-52.242c-1.633,0-2.961-1.324-2.961-2.953V5.197
				c0-1.625,1.328-2.953,2.961-2.953h52.242c1.633,0,2.961,1.324,2.961,2.953V40.404z M230.744,1.33h-52.242
				c-2.137,0-3.879,1.734-3.879,3.867v35.207c0,2.133,1.738,3.868,3.879,3.868h52.242c2.141,0,3.879-1.735,3.879-3.868V5.197
				C234.623,3.064,232.885,1.33,230.744,1.33z"/>
			<path fill="#F2F2F2" d="M177.545,4.244h54.156v29.309h-54.156V4.244z M176.627,34.471h55.996V3.33h-55.996V34.471z"/>
			<path fill="#F2F2F2" d="M217.467,52.756h-25.688v-1.309c5.43-0.015,7.731-0.375,7.852-5.761h9.988
				c0.121,5.386,2.422,5.742,7.852,5.761v1.309H217.467z M210.529,45.229v-0.457h-11.812v0.457c0,5.093-1.535,5.3-7.399,5.3h-0.461
				v3.141h27.528v-3.141h-0.461C212.064,50.533,210.529,50.322,210.529,45.229z"/>
		</g>
	</g>
</g>
</svg>
