<?xml version="1.0" encoding="utf-8"?>
<!-- Generator: Adobe Illustrator 17.0.0, SVG Export Plug-In . SVG Version: 6.00 Build 0)  -->
<!DOCTYPE svg PUBLIC "-//W3C//DTD SVG 1.1//EN" "http://www.w3.org/Graphics/SVG/1.1/DTD/svg11.dtd">
<svg version="1.1" id="Layer_1" xmlns="http://www.w3.org/2000/svg" xmlns:xlink="http://www.w3.org/1999/xlink" x="0px" y="0px"
	 width="41px" height="41px" viewBox="0 0 41 41" enable-background="new 0 0 41 41" xml:space="preserve">
<g>
	<g>
		<path fill="#293246" d="M4.374,1.251c-1.713,0-3.125,1.41-3.125,3.125v32.251c0,1.713,1.41,3.125,3.125,3.125h32.251
			c1.713,0,3.125-1.41,3.125-3.125V4.374c0-1.713-1.41-3.125-3.125-3.125H4.374V1.251z M36.626,40.658H4.374
			c-2.218,0-4.032-1.814-4.032-4.032V4.374c0-2.218,1.814-4.032,4.032-4.032h32.251c2.218,0,4.032,1.814,4.032,4.032v32.251
			C40.658,38.844,38.844,40.658,36.626,40.658z"/>
		<path fill="#293246" d="M16.922,6.592c-0.756,0-1.361,0.605-1.361,1.361v25.096c0,0.756,0.605,1.361,1.361,1.361h7.155
			c0.756,0,1.361-0.605,1.361-1.361V7.953c0-0.756-0.605-1.361-1.361-1.361H16.922z M24.078,35.267h-7.155
			c-1.259,0-2.218-1.009-2.218-2.218V7.953c0-1.259,1.009-2.218,2.218-2.218h7.155c1.259,0,2.218,1.009,2.218,2.218v25.096
			C26.296,34.259,25.339,35.267,24.078,35.267z"/>
		<path fill="#293246" d="M21.458,33.049h-2.117c-1.41,0-2.521-1.108-2.521-2.521v-7.507c0-1.41,1.108-2.521,2.521-2.521h2.117
			c1.41,0,2.521,1.108,2.521,2.521v7.51C23.978,31.941,22.868,33.049,21.458,33.049z"/>
		<path fill="#293246" d="M6.139,4.929c-0.706,0-1.259,0.555-1.259,1.259c0,0.706,0.555,1.259,1.259,1.259
			c0.706,0,1.259-0.555,1.259-1.259C7.398,5.485,6.843,4.929,6.139,4.929z M6.139,7.802c-0.907,0-1.613-0.706-1.613-1.613
			s0.706-1.613,1.613-1.613s1.613,0.706,1.613,1.613C7.75,7.046,7.046,7.802,6.139,7.802z"/>
		<rect x="4.726" y="5.988" fill="#293246" width="2.872" height="0.352"/>
		<rect x="5.988" y="4.729" fill="#293246" width="0.352" height="2.872"/>
		<path fill="#293246" d="M6.139,33.552c-0.706,0-1.259,0.555-1.259,1.259c0,0.706,0.555,1.259,1.259,1.259
			c0.706,0,1.259-0.555,1.259-1.259C7.398,34.108,6.843,33.552,6.139,33.552z M6.139,36.425c-0.907,0-1.613-0.706-1.613-1.613
			c0-0.907,0.706-1.613,1.613-1.613s1.613,0.706,1.613,1.613C7.75,35.721,7.046,36.425,6.139,36.425z"/>
		<rect x="4.726" y="34.611" fill="#293246" width="2.872" height="0.352"/>
		<rect x="5.988" y="33.401" fill="#293246" width="0.352" height="2.872"/>
		<path fill="#293246" d="M34.66,4.929c-0.706,0-1.259,0.555-1.259,1.259c0,0.706,0.555,1.259,1.259,1.259
			c0.706,0,1.259-0.555,1.259-1.259C35.922,5.485,35.367,4.929,34.66,4.929z M34.66,7.802c-0.907,0-1.613-0.706-1.613-1.613
			s0.706-1.613,1.613-1.613s1.613,0.706,1.613,1.613C36.274,7.046,35.518,7.802,34.66,7.802z"/>
		<rect x="33.2" y="5.988" fill="#293246" width="2.872" height="0.352"/>
		<rect x="34.46" y="4.729" fill="#293246" width="0.352" height="2.872"/>
		<path fill="#293246" d="M34.66,33.552c-0.706,0-1.259,0.555-1.259,1.259c0,0.706,0.555,1.259,1.259,1.259
			c0.706,0,1.259-0.555,1.259-1.259C35.922,34.108,35.367,33.552,34.66,33.552z M34.66,36.425c-0.907,0-1.613-0.706-1.613-1.613
			c0-0.907,0.706-1.613,1.613-1.613s1.613,0.706,1.613,1.613C36.274,35.721,35.518,36.425,34.66,36.425z"/>
		<rect x="33.2" y="34.611" fill="#293246" width="2.872" height="0.352"/>
		<rect x="34.46" y="33.401" fill="#293246" width="0.352" height="2.872"/>
	</g>
</g>
</svg>
