<?xml version="1.0" encoding="utf-8"?>
<!-- Generator: Adobe Illustrator 17.0.0, SVG Export Plug-In . SVG Version: 6.00 Build 0)  -->
<!DOCTYPE svg PUBLIC "-//W3C//DTD SVG 1.1//EN" "http://www.w3.org/Graphics/SVG/1.1/DTD/svg11.dtd">
<svg version="1.1" id="Layer_1" xmlns="http://www.w3.org/2000/svg" xmlns:xlink="http://www.w3.org/1999/xlink" x="0px" y="0px"
	 width="70px" height="72px" viewBox="0 0 70 72" enable-background="new 0 0 70 72" xml:space="preserve">
<g>
	<path fill="none" stroke="#302F2F" stroke-miterlimit="10" d="M24.009,63.459c-10.807-3.202-41.981-16.888-6.653-62.371
		C36.46,14.053,43.821,25.46,45.183,34.886c-9.138,3.273-15.428,9.636-14.644,21.146c-4.977-11.837-8.881-28.206-10.556-38.413
		C19.142,29.542,20.902,50.75,24.009,63.459z"/>
	<path fill="none" stroke="#302F2F" stroke-miterlimit="10" d="M36.24,66.317c-2.63-7.312-8.095-31.083,32.738-29.773
		c1.198,37.343-18.582,35.965-27.564,33.444c3.719-7.238,8.505-13.77,14.562-19.286C48.546,54.816,41.929,60.035,36.24,66.317z"/>
</g>
</svg>
