<?xml version="1.0" encoding="utf-8"?>
<!-- Generator: Adobe Illustrator 17.0.0, SVG Export Plug-In . SVG Version: 6.00 Build 0)  -->
<!DOCTYPE svg PUBLIC "-//W3C//DTD SVG 1.1//EN" "http://www.w3.org/Graphics/SVG/1.1/DTD/svg11.dtd">
<svg version="1.1" id="Layer_1" xmlns="http://www.w3.org/2000/svg" xmlns:xlink="http://www.w3.org/1999/xlink" x="0px" y="0px"
	 width="25px" height="35px" viewBox="0 0 25 35" enable-background="new 0 0 25 35" xml:space="preserve">
<path fill="#293246" d="M12.5,0.035c-6.633,0-12.007,5.375-12.007,12.007c0,4.402,4.025,9.065,5.492,13.16
	c2.186,6.107,1.944,9.763,6.515,9.763c4.64,0,4.328-3.638,6.515-9.738c1.471-4.103,5.492-8.819,5.492-13.185
	C24.507,5.41,19.131,0.035,12.5,0.035 M15.33,29.699l-5.413,0.676c-0.193-0.559-0.401-1.213-0.653-2.066
	c-0.003-0.01-0.007-0.023-0.01-0.035l6.756-0.843c-0.098,0.322-0.199,0.661-0.29,0.963C15.579,28.885,15.45,29.311,15.33,29.699
	 M8.937,27.224c-0.199-0.657-0.423-1.349-0.67-2.081h8.476c-0.135,0.392-0.269,0.783-0.384,1.155L8.937,27.224z M12.5,32.782
	c-1.106,0-1.614-0.128-2.181-1.364l4.627-0.58C14.276,32.644,13.788,32.782,12.5,32.782 M17.6,22.958H7.412
	c-0.544-1.179-1.196-2.358-1.84-3.512c-1.423-2.548-2.895-5.184-2.895-7.404c0-5.416,4.406-9.822,9.823-9.822
	c5.417,0,9.823,4.406,9.823,9.822c0,2.205-1.472,4.853-2.899,7.417C18.787,20.609,18.14,21.786,17.6,22.958"/>
</svg>
