<?xml version="1.0" encoding="utf-8"?>
<!-- Generator: Adobe Illustrator 17.0.0, SVG Export Plug-In . SVG Version: 6.00 Build 0)  -->
<!DOCTYPE svg PUBLIC "-//W3C//DTD SVG 1.1//EN" "http://www.w3.org/Graphics/SVG/1.1/DTD/svg11.dtd">
<svg version="1.1" id="Layer_1" xmlns="http://www.w3.org/2000/svg" xmlns:xlink="http://www.w3.org/1999/xlink" x="0px" y="0px"
	 width="311px" height="74px" viewBox="0 0 311 74" enable-background="new 0 0 311 74" xml:space="preserve">
<g>
	<path fill="#8D222D" d="M89.639,32.12c-2.293-9.43-10.792-16.431-20.927-16.431c-1.779,0-3.507,0.217-5.16,0.624
		c-5.15-6.328-13-10.371-21.794-10.371c-15.029,0-27.301,11.804-28.052,26.646C5.722,35.7,0.065,43.461,0.065,52.545
		c0,11.826,9.587,21.412,21.412,21.412h61.718c11.826,0,21.412-9.587,21.412-21.412C104.608,42.965,98.316,34.854,89.639,32.12z"/>
	<path fill="#D52C3F" d="M89.639,26.221C87.345,16.791,78.846,9.79,68.711,9.79c-1.779,0-3.507,0.217-5.16,0.624
		c-5.15-6.328-13-10.371-21.794-10.371c-15.029,0-27.301,11.804-28.052,26.646C5.722,29.8,0.065,37.562,0.065,46.646
		c0,11.826,9.587,21.412,21.412,21.412h61.718c11.826,0,21.412-9.587,21.412-21.412C104.608,37.065,98.316,28.955,89.639,26.221z"/>
	<path fill="#293246" d="M31.114,43.824v22.662v1.572h1.573h2.487h10.182v-16.64c0-0.415,0.165-0.823,0.459-1.115
		c0.292-0.294,0.699-0.461,1.111-0.461h10.821c0.415,0,0.818,0.168,1.112,0.461c0.294,0.291,0.459,0.699,0.459,1.115v16.64h10.182
		h2.49h1.57v-1.572V43.795L52.107,27.116L31.114,43.824z"/>
	<path fill="#293246" d="M78.317,36.805l-24.063-18.51c-1.128-0.869-2.708-0.869-3.838,0l-12.89,9.915v-5.007h-6.294v9.846
		l-4.876,3.753c-1.376,1.06-1.635,3.036-0.575,4.412c0.618,0.805,1.552,1.228,2.493,1.228c0.345,0,0.691-0.058,1.025-0.172
		l22.067-17.558c0.425-0.339,1.022-0.343,1.448-0.011l22.607,17.576c1.233,0.401,2.634,0.026,3.471-1.062
		C79.953,39.839,79.694,37.864,78.317,36.805z"/>
	<rect x="31.114" y="68.058" fill="#1B212C" width="14.245" height="5.899"/>
	<rect x="59.306" y="68.058" fill="#1B212C" width="14.253" height="5.899"/>
	<path fill="#293246" d="M151.674,48.578h-4.491c-0.513,0-0.926-0.128-1.241-0.385c-0.314-0.256-0.554-0.574-0.719-0.955
		l-2.977-7.89h-15.382l-2.977,7.89c-0.133,0.331-0.364,0.637-0.695,0.918c-0.331,0.282-0.744,0.422-1.241,0.422h-4.49l14.166-35.726
		h5.88L151.674,48.578z M128.427,35.18h12.256l-4.912-13.05c-0.198-0.48-0.401-1.05-0.608-1.712
		c-0.207-0.661-0.409-1.373-0.608-2.134c-0.198,0.778-0.401,1.493-0.608,2.146c-0.207,0.654-0.401,1.228-0.583,1.724L128.427,35.18z
		"/>
	<path fill="#293246" d="M163.632,43.715h14.836v4.863h-20.642V12.852h5.805V43.715z"/>
	<path fill="#293246" d="M207.719,12.852v4.689H191.27v11.437h13.968v4.689H191.27v14.911h-5.83V12.852H207.719z"/>
	<path fill="#293246" d="M221.29,34.188v14.39h-5.806V12.852h10.519c2.349,0,4.37,0.24,6.066,0.72
		c1.695,0.48,3.089,1.162,4.18,2.047c1.092,0.885,1.898,1.948,2.419,3.188c0.521,1.241,0.781,2.622,0.781,4.143
		c0,1.241-0.186,2.398-0.558,3.473c-0.372,1.075-0.91,2.051-1.613,2.928c-0.703,0.877-1.571,1.637-2.605,2.283
		c-1.034,0.645-2.204,1.15-3.511,1.513c0.728,0.43,1.348,1.034,1.861,1.811l9.651,13.621h-5.185c-1.026,0-1.77-0.397-2.233-1.191
		l-8.336-12.033c-0.282-0.413-0.587-0.711-0.918-0.893c-0.331-0.182-0.827-0.273-1.489-0.273H221.29z M221.29,29.97h4.565
		c1.323,0,2.481-0.161,3.473-0.484c0.993-0.323,1.819-0.773,2.481-1.352c0.661-0.579,1.157-1.269,1.489-2.072
		c0.331-0.802,0.496-1.691,0.496-2.667c0-1.951-0.645-3.44-1.935-4.466c-1.29-1.025-3.242-1.538-5.855-1.538h-4.714V29.97z"/>
	<path fill="#293246" d="M271.256,12.852v4.689h-16.449v10.767h13.149v4.54h-13.149v11.04h16.474l-0.025,4.689h-22.279V12.852
		H271.256z"/>
	<path fill="#293246" d="M310.901,30.715c0,2.646-0.43,5.065-1.29,7.257c-0.86,2.192-2.072,4.073-3.635,5.644
		c-1.563,1.572-3.44,2.791-5.632,3.659c-2.192,0.868-4.627,1.302-7.306,1.302h-13.497V12.852h13.497
		c2.679,0,5.115,0.434,7.306,1.302c2.191,0.868,4.069,2.088,5.632,3.659c1.563,1.572,2.774,3.453,3.635,5.644
		C310.471,25.65,310.901,28.068,310.901,30.715z M304.972,30.715c0-2.051-0.277-3.895-0.831-5.533
		c-0.554-1.637-1.348-3.018-2.382-4.143c-1.034-1.125-2.287-1.989-3.759-2.593c-1.472-0.604-3.126-0.905-4.962-0.905h-7.666v26.348
		h7.666c1.836,0,3.49-0.298,4.962-0.893c1.472-0.596,2.725-1.46,3.759-2.593c1.034-1.133,1.827-2.514,2.382-4.143
		C304.695,34.631,304.972,32.782,304.972,30.715z"/>
	<g>
		<path fill="#293246" d="M123.932,63.803c-0.048,0.091-0.118,0.137-0.209,0.137c-0.07,0-0.16-0.05-0.27-0.149
			c-0.11-0.099-0.259-0.209-0.447-0.33c-0.188-0.121-0.423-0.233-0.705-0.335c-0.282-0.102-0.63-0.153-1.044-0.153
			c-0.414,0-0.778,0.059-1.092,0.178c-0.314,0.118-0.578,0.28-0.79,0.484c-0.212,0.204-0.374,0.441-0.484,0.709
			c-0.11,0.269-0.165,0.551-0.165,0.846c0,0.387,0.082,0.707,0.246,0.959c0.164,0.253,0.38,0.467,0.649,0.645
			c0.269,0.177,0.573,0.326,0.915,0.447c0.341,0.121,0.692,0.241,1.052,0.359c0.36,0.118,0.711,0.249,1.052,0.391
			c0.341,0.142,0.646,0.321,0.915,0.536c0.269,0.215,0.485,0.479,0.649,0.794c0.164,0.314,0.246,0.705,0.246,1.173
			c0,0.478-0.082,0.928-0.246,1.35c-0.164,0.422-0.402,0.789-0.713,1.1c-0.312,0.312-0.693,0.557-1.144,0.737
			s-0.967,0.27-1.547,0.27c-0.752,0-1.4-0.133-1.942-0.399c-0.543-0.266-1.018-0.63-1.427-1.092l0.226-0.355
			c0.064-0.08,0.14-0.121,0.226-0.121c0.048,0,0.11,0.032,0.185,0.097c0.075,0.065,0.167,0.144,0.274,0.238
			c0.107,0.094,0.236,0.196,0.387,0.306c0.15,0.11,0.325,0.212,0.524,0.306s0.427,0.173,0.685,0.238
			c0.258,0.065,0.551,0.097,0.879,0.097c0.451,0,0.854-0.069,1.209-0.206c0.355-0.137,0.654-0.324,0.899-0.56
			c0.244-0.236,0.431-0.517,0.56-0.842c0.129-0.325,0.193-0.673,0.193-1.044c0-0.403-0.082-0.735-0.246-0.995
			c-0.164-0.261-0.38-0.478-0.649-0.653c-0.269-0.175-0.574-0.321-0.915-0.439c-0.341-0.118-0.692-0.234-1.052-0.347
			c-0.36-0.113-0.711-0.239-1.052-0.379c-0.341-0.14-0.646-0.319-0.915-0.536c-0.269-0.218-0.485-0.489-0.649-0.814
			c-0.164-0.325-0.246-0.732-0.246-1.221c0-0.382,0.073-0.75,0.218-1.104c0.145-0.354,0.357-0.667,0.637-0.939
			c0.279-0.271,0.624-0.489,1.036-0.653c0.411-0.164,0.88-0.246,1.406-0.246c0.591,0,1.122,0.094,1.592,0.282
			c0.47,0.188,0.899,0.475,1.286,0.862L123.932,63.803z"/>
		<path fill="#293246" d="M133.354,70.983c0.032-0.08,0.067-0.164,0.105-0.25c0.037-0.086,0.078-0.167,0.121-0.242l4.473-7.922
			c0.043-0.07,0.087-0.113,0.133-0.129c0.046-0.016,0.106-0.024,0.182-0.024h0.564V73.82h-0.717v-9.72
			c0-0.064,0.001-0.134,0.004-0.209c0.003-0.075,0.007-0.15,0.012-0.226l-4.481,7.963c-0.075,0.14-0.183,0.21-0.322,0.21h-0.129
			c-0.14,0-0.247-0.07-0.322-0.21l-4.61-7.979c0.016,0.156,0.024,0.306,0.024,0.451v9.72h-0.725V62.416h0.572
			c0.075,0,0.134,0.008,0.177,0.024c0.043,0.016,0.086,0.059,0.129,0.129l4.602,7.93C133.225,70.651,133.295,70.812,133.354,70.983z
			"/>
		<path fill="#293246" d="M151.616,73.82h-0.637c-0.076,0-0.137-0.02-0.185-0.061c-0.048-0.04-0.086-0.092-0.113-0.157l-1.338-3.312
			h-5.601l-1.338,3.312c-0.022,0.059-0.059,0.11-0.113,0.153c-0.054,0.043-0.118,0.065-0.193,0.065h-0.629l4.667-11.404h0.814
			L151.616,73.82z M143.984,69.678h5.109l-2.321-5.762c-0.08-0.188-0.159-0.414-0.233-0.677c-0.038,0.129-0.076,0.253-0.113,0.371
			c-0.038,0.118-0.076,0.223-0.113,0.314L143.984,69.678z"/>
		<path fill="#293246" d="M154.985,68.662v5.158h-0.83V62.416h2.917c1.311,0,2.293,0.254,2.946,0.762
			c0.653,0.508,0.979,1.253,0.979,2.237c0,0.435-0.077,0.833-0.23,1.193c-0.153,0.36-0.371,0.676-0.653,0.947
			c-0.282,0.272-0.624,0.494-1.024,0.669c-0.4,0.175-0.848,0.289-1.342,0.342c0.129,0.081,0.244,0.188,0.346,0.323l3.925,4.932
			h-0.709c-0.091,0-0.168-0.015-0.23-0.044c-0.062-0.029-0.12-0.084-0.174-0.165l-3.659-4.626c-0.043-0.059-0.087-0.11-0.133-0.153
			c-0.046-0.043-0.097-0.077-0.153-0.101s-0.124-0.041-0.201-0.052c-0.078-0.011-0.174-0.016-0.286-0.016H154.985z M154.985,68.05
			h1.975c0.505,0,0.958-0.061,1.358-0.181c0.4-0.121,0.739-0.294,1.015-0.52c0.277-0.226,0.488-0.497,0.633-0.814
			s0.218-0.674,0.218-1.072c0-0.811-0.265-1.413-0.794-1.805c-0.529-0.392-1.301-0.589-2.317-0.589h-2.087V68.05z"/>
		<path fill="#293246" d="M171.523,62.416v0.701h-4.006V73.82h-0.83V63.117h-4.03v-0.701H171.523z"/>
		<path fill="#293246" d="M182.887,73.82h-0.83v-5.464h-7.141v5.464h-0.83V62.416h0.83v5.319h7.141v-5.319h0.83V73.82z"/>
		<path fill="#293246" d="M197.031,68.115c0,0.881-0.132,1.68-0.395,2.398c-0.264,0.717-0.634,1.33-1.113,1.838
			c-0.478,0.508-1.052,0.9-1.721,1.177c-0.669,0.277-1.406,0.415-2.212,0.415c-0.806,0-1.542-0.138-2.208-0.415
			c-0.666-0.277-1.239-0.669-1.717-1.177c-0.478-0.508-0.849-1.12-1.112-1.838c-0.263-0.717-0.395-1.517-0.395-2.398
			c0-0.876,0.132-1.673,0.395-2.39c0.263-0.717,0.634-1.33,1.112-1.838c0.478-0.508,1.05-0.901,1.717-1.181
			c0.666-0.279,1.402-0.419,2.208-0.419c0.806,0,1.543,0.138,2.212,0.415c0.669,0.277,1.242,0.67,1.721,1.181
			c0.478,0.511,0.849,1.124,1.113,1.842C196.899,66.442,197.031,67.239,197.031,68.115z M196.177,68.115
			c0-0.795-0.11-1.51-0.33-2.144c-0.221-0.634-0.532-1.171-0.935-1.612c-0.403-0.44-0.887-0.778-1.451-1.011
			c-0.564-0.234-1.188-0.351-1.87-0.351c-0.677,0-1.297,0.117-1.862,0.351c-0.564,0.234-1.049,0.571-1.455,1.011
			c-0.406,0.44-0.72,0.978-0.943,1.612c-0.223,0.634-0.335,1.349-0.335,2.144c0,0.801,0.112,1.517,0.335,2.148
			s0.537,1.167,0.943,1.608c0.406,0.441,0.891,0.777,1.455,1.008c0.564,0.231,1.185,0.346,1.862,0.346
			c0.682,0,1.306-0.115,1.87-0.346c0.564-0.231,1.048-0.567,1.451-1.008c0.403-0.44,0.714-0.976,0.935-1.608
			C196.067,69.631,196.177,68.915,196.177,68.115z"/>
		<path fill="#293246" d="M205.993,70.983c0.032-0.08,0.067-0.164,0.105-0.25c0.037-0.086,0.078-0.167,0.121-0.242l4.473-7.922
			c0.043-0.07,0.087-0.113,0.133-0.129c0.045-0.016,0.106-0.024,0.181-0.024h0.564V73.82h-0.717v-9.72
			c0-0.064,0.001-0.134,0.004-0.209s0.007-0.15,0.012-0.226l-4.481,7.963c-0.076,0.14-0.183,0.21-0.323,0.21h-0.129
			c-0.14,0-0.247-0.07-0.322-0.21l-4.61-7.979c0.016,0.156,0.024,0.306,0.024,0.451v9.72h-0.725V62.416h0.572
			c0.075,0,0.134,0.008,0.178,0.024c0.043,0.016,0.086,0.059,0.129,0.129l4.602,7.93C205.864,70.651,205.934,70.812,205.993,70.983z
			"/>
		<path fill="#293246" d="M222.418,62.416v0.685h-6.004v4.61h4.997v0.669h-4.997v4.755h6.02l-0.016,0.685h-6.834V62.416H222.418z"/>
		<path fill="#293246" d="M236.135,63.803c-0.048,0.091-0.118,0.137-0.209,0.137c-0.07,0-0.16-0.05-0.27-0.149
			c-0.11-0.099-0.259-0.209-0.447-0.33c-0.188-0.121-0.423-0.233-0.705-0.335c-0.282-0.102-0.63-0.153-1.044-0.153
			c-0.414,0-0.778,0.059-1.092,0.178c-0.314,0.118-0.578,0.28-0.79,0.484c-0.212,0.204-0.374,0.441-0.484,0.709
			c-0.11,0.269-0.165,0.551-0.165,0.846c0,0.387,0.082,0.707,0.246,0.959c0.164,0.253,0.38,0.467,0.649,0.645
			c0.269,0.177,0.573,0.326,0.915,0.447c0.341,0.121,0.692,0.241,1.052,0.359c0.36,0.118,0.711,0.249,1.052,0.391
			c0.341,0.142,0.646,0.321,0.915,0.536c0.269,0.215,0.485,0.479,0.649,0.794c0.164,0.314,0.246,0.705,0.246,1.173
			c0,0.478-0.082,0.928-0.246,1.35c-0.164,0.422-0.402,0.789-0.713,1.1s-0.693,0.557-1.144,0.737c-0.451,0.18-0.967,0.27-1.547,0.27
			c-0.752,0-1.4-0.133-1.943-0.399c-0.543-0.266-1.018-0.63-1.426-1.092l0.226-0.355c0.065-0.08,0.14-0.121,0.226-0.121
			c0.048,0,0.11,0.032,0.185,0.097s0.167,0.144,0.274,0.238c0.107,0.094,0.236,0.196,0.387,0.306c0.15,0.11,0.325,0.212,0.524,0.306
			c0.199,0.094,0.427,0.173,0.685,0.238c0.258,0.065,0.551,0.097,0.878,0.097c0.451,0,0.854-0.069,1.209-0.206
			c0.355-0.137,0.654-0.324,0.899-0.56c0.244-0.236,0.431-0.517,0.56-0.842c0.129-0.325,0.193-0.673,0.193-1.044
			c0-0.403-0.082-0.735-0.246-0.995c-0.164-0.261-0.38-0.478-0.649-0.653c-0.269-0.175-0.574-0.321-0.915-0.439
			c-0.341-0.118-0.692-0.234-1.052-0.347c-0.36-0.113-0.71-0.239-1.052-0.379c-0.341-0.14-0.646-0.319-0.915-0.536
			c-0.269-0.218-0.485-0.489-0.649-0.814c-0.164-0.325-0.246-0.732-0.246-1.221c0-0.382,0.073-0.75,0.218-1.104
			c0.145-0.354,0.357-0.667,0.637-0.939c0.279-0.271,0.625-0.489,1.036-0.653c0.411-0.164,0.88-0.246,1.406-0.246
			c0.591,0,1.122,0.094,1.592,0.282c0.47,0.188,0.899,0.475,1.286,0.862L236.135,63.803z"/>
		<path fill="#293246" d="M249.997,68.115c0,0.881-0.131,1.68-0.395,2.398s-0.634,1.33-1.112,1.838
			c-0.478,0.508-1.052,0.9-1.721,1.177c-0.669,0.277-1.407,0.415-2.212,0.415s-1.542-0.138-2.208-0.415
			c-0.666-0.277-1.238-0.669-1.717-1.177c-0.478-0.508-0.849-1.12-1.112-1.838s-0.395-1.517-0.395-2.398
			c0-0.876,0.131-1.673,0.395-2.39c0.263-0.717,0.634-1.33,1.112-1.838s1.051-0.901,1.717-1.181
			c0.666-0.279,1.403-0.419,2.208-0.419s1.543,0.138,2.212,0.415c0.669,0.277,1.242,0.67,1.721,1.181
			c0.478,0.511,0.849,1.124,1.112,1.842C249.865,66.442,249.997,67.239,249.997,68.115z M249.143,68.115
			c0-0.795-0.11-1.51-0.331-2.144c-0.22-0.634-0.532-1.171-0.935-1.612c-0.403-0.44-0.887-0.778-1.451-1.011
			c-0.564-0.234-1.187-0.351-1.87-0.351c-0.677,0-1.298,0.117-1.862,0.351c-0.564,0.234-1.049,0.571-1.455,1.011
			c-0.406,0.44-0.72,0.978-0.943,1.612c-0.223,0.634-0.334,1.349-0.334,2.144c0,0.801,0.111,1.517,0.334,2.148
			s0.537,1.167,0.943,1.608c0.406,0.441,0.891,0.777,1.455,1.008c0.564,0.231,1.185,0.346,1.862,0.346
			c0.682,0,1.306-0.115,1.87-0.346c0.564-0.231,1.048-0.567,1.451-1.008c0.403-0.44,0.714-0.976,0.935-1.608
			C249.032,69.631,249.143,68.915,249.143,68.115z"/>
		<path fill="#293246" d="M254.099,73.119h5.4v0.701h-6.23V62.416h0.83V73.119z"/>
		<path fill="#293246" d="M265.721,73.232c0.548,0,1.038-0.095,1.471-0.286c0.432-0.191,0.799-0.455,1.1-0.794
			c0.301-0.338,0.531-0.738,0.689-1.197c0.158-0.459,0.238-0.955,0.238-1.487v-7.052h0.822v7.052c0,0.629-0.1,1.216-0.298,1.761
			c-0.199,0.545-0.485,1.021-0.858,1.426c-0.374,0.406-0.828,0.724-1.362,0.955c-0.535,0.231-1.135,0.347-1.801,0.347
			c-0.666,0-1.267-0.116-1.801-0.347c-0.535-0.231-0.989-0.549-1.362-0.955c-0.374-0.406-0.66-0.881-0.858-1.426
			c-0.199-0.545-0.298-1.132-0.298-1.761v-7.052h0.83v7.044c0,0.532,0.079,1.028,0.238,1.487c0.158,0.459,0.387,0.858,0.685,1.197
			c0.298,0.338,0.664,0.604,1.096,0.798C264.683,73.136,265.173,73.232,265.721,73.232z"/>
		<path fill="#293246" d="M281.324,62.416v0.701h-4.006V73.82h-0.83V63.117h-4.03v-0.701H281.324z"/>
		<path fill="#293246" d="M284.717,73.82h-0.83V62.416h0.83V73.82z"/>
		<path fill="#293246" d="M298.862,68.115c0,0.881-0.132,1.68-0.395,2.398s-0.634,1.33-1.112,1.838
			c-0.478,0.508-1.052,0.9-1.721,1.177c-0.669,0.277-1.406,0.415-2.212,0.415c-0.806,0-1.542-0.138-2.208-0.415
			c-0.666-0.277-1.239-0.669-1.717-1.177c-0.479-0.508-0.849-1.12-1.112-1.838s-0.395-1.517-0.395-2.398
			c0-0.876,0.132-1.673,0.395-2.39c0.263-0.717,0.634-1.33,1.112-1.838c0.478-0.508,1.05-0.901,1.717-1.181
			c0.666-0.279,1.402-0.419,2.208-0.419c0.806,0,1.543,0.138,2.212,0.415c0.669,0.277,1.242,0.67,1.721,1.181
			c0.478,0.511,0.849,1.124,1.112,1.842C298.73,66.442,298.862,67.239,298.862,68.115z M298.007,68.115
			c0-0.795-0.11-1.51-0.33-2.144c-0.221-0.634-0.532-1.171-0.935-1.612c-0.403-0.44-0.887-0.778-1.451-1.011
			c-0.564-0.234-1.188-0.351-1.87-0.351c-0.677,0-1.298,0.117-1.862,0.351c-0.564,0.234-1.049,0.571-1.455,1.011
			c-0.406,0.44-0.72,0.978-0.943,1.612c-0.223,0.634-0.335,1.349-0.335,2.144c0,0.801,0.111,1.517,0.335,2.148
			c0.223,0.631,0.537,1.167,0.943,1.608c0.405,0.441,0.891,0.777,1.455,1.008c0.564,0.231,1.185,0.346,1.862,0.346
			c0.682,0,1.306-0.115,1.87-0.346c0.564-0.231,1.048-0.567,1.451-1.008c0.403-0.44,0.714-0.976,0.935-1.608
			C297.897,69.631,298.007,68.915,298.007,68.115z"/>
		<path fill="#293246" d="M302.718,62.445c0.04,0.019,0.085,0.06,0.133,0.125l7.39,9.881c-0.016-0.161-0.024-0.317-0.024-0.467
			v-9.567h0.717V73.82h-0.387c-0.07,0-0.128-0.012-0.173-0.036s-0.09-0.066-0.133-0.125l-7.407-9.889
			c0.016,0.161,0.024,0.312,0.024,0.451v9.599h-0.725V62.416h0.411C302.62,62.416,302.677,62.426,302.718,62.445z"/>
	</g>
	<g>
		<rect x="117.466" y="54.785" fill="#D52C3F" width="193.43" height="1.314"/>
	</g>
</g>
</svg>
