<?xml version="1.0" encoding="utf-8"?>
<!-- Generator: Adobe Illustrator 17.0.0, SVG Export Plug-In . SVG Version: 6.00 Build 0)  -->
<!DOCTYPE svg PUBLIC "-//W3C//DTD SVG 1.1//EN" "http://www.w3.org/Graphics/SVG/1.1/DTD/svg11.dtd">
<svg version="1.1" id="Layer_1" xmlns="http://www.w3.org/2000/svg" xmlns:xlink="http://www.w3.org/1999/xlink" x="0px" y="0px"
	 width="129px" height="34px" viewBox="0 0 129 34" enable-background="new 0 0 129 34" xml:space="preserve">
<g>
	<path fill="#8D222D" d="M41.063,14.786c-1.04-4.278-4.896-7.454-9.494-7.454c-0.807,0-1.591,0.099-2.341,0.283
		c-2.336-2.871-5.897-4.705-9.887-4.705c-6.818,0-12.385,5.355-12.725,12.088c-3.621,1.411-6.188,4.933-6.188,9.053
		c0,5.365,4.349,9.714,9.714,9.714H38.14c5.365,0,9.714-4.349,9.714-9.714C47.854,19.706,44.999,16.027,41.063,14.786z"/>
	<path fill="#D52C3F" d="M41.063,12.11c-1.04-4.278-4.896-7.454-9.494-7.454c-0.807,0-1.591,0.099-2.341,0.283
		c-2.336-2.871-5.897-4.705-9.887-4.705c-6.818,0-12.385,5.355-12.725,12.088c-3.621,1.411-6.188,4.933-6.188,9.053
		c0,5.365,4.349,9.714,9.714,9.714H38.14c5.365,0,9.714-4.349,9.714-9.714C47.854,17.03,44.999,13.35,41.063,12.11z"/>
	<path fill="#293246" d="M14.513,20.096v10.281v0.713h0.714h1.128h4.619v-7.549c0-0.188,0.075-0.373,0.208-0.506
		c0.132-0.133,0.317-0.209,0.504-0.209h4.909c0.188,0,0.371,0.076,0.505,0.209c0.133,0.132,0.208,0.317,0.208,0.506v7.549h4.619
		h1.129h0.712v-0.713V20.082l-9.731-7.566L14.513,20.096z"/>
	<path fill="#293246" d="M35.927,16.911L25.011,8.515c-0.512-0.394-1.229-0.394-1.741,0l-5.847,4.498v-2.271h-2.855v4.467
		l-2.212,1.702c-0.624,0.481-0.742,1.377-0.261,2.001c0.28,0.365,0.704,0.557,1.131,0.557c0.156,0,0.313-0.026,0.465-0.078
		l10.011-7.965c0.193-0.154,0.464-0.155,0.657-0.005l10.255,7.973c0.559,0.182,1.195,0.012,1.574-0.482
		C36.669,18.288,36.551,17.392,35.927,16.911z"/>
	<rect x="14.513" y="31.089" fill="#1B212C" width="6.462" height="2.676"/>
	<rect x="27.302" y="31.089" fill="#1B212C" width="6.466" height="2.676"/>
	<g>
		<path fill="#293246" d="M67.266,29.813h-2.301c-0.258,0-0.468-0.065-0.631-0.194c-0.162-0.129-0.284-0.289-0.365-0.481
			l-1.195-3.264h-6.627l-1.195,3.264c-0.059,0.17-0.173,0.325-0.343,0.465c-0.17,0.14-0.38,0.21-0.631,0.21h-2.323l6.295-15.999
			h3.032L67.266,29.813z M56.91,23.773h5.101l-1.947-5.322c-0.096-0.236-0.196-0.514-0.299-0.835
			c-0.103-0.321-0.207-0.669-0.31-1.046c-0.103,0.376-0.205,0.727-0.304,1.051c-0.1,0.325-0.197,0.608-0.293,0.852L56.91,23.773z"/>
		<path fill="#293246" d="M70.795,27.357h6.395v2.456h-9.371V13.815h2.976V27.357z"/>
		<path fill="#293246" d="M88.298,13.815v2.368h-7.103v4.735h5.997v2.379h-5.997v6.517h-2.987V13.815H88.298z"/>
		<path fill="#293246" d="M92.602,23.562v6.251h-2.976V13.815h4.879c1.084,0,2.015,0.113,2.794,0.337
			c0.778,0.225,1.416,0.54,1.914,0.946c0.498,0.406,0.865,0.891,1.101,1.455c0.236,0.564,0.354,1.186,0.354,1.864
			c0,0.538-0.079,1.047-0.238,1.527c-0.159,0.48-0.387,0.915-0.686,1.306c-0.299,0.391-0.668,0.734-1.106,1.029
			c-0.439,0.295-0.939,0.531-1.499,0.708c0.376,0.214,0.701,0.52,0.974,0.918l4.005,5.908h-2.689c-0.509,0-0.878-0.199-1.106-0.598
			l-3.364-5.123c-0.125-0.192-0.264-0.328-0.415-0.409c-0.151-0.081-0.374-0.122-0.669-0.122H92.602z M92.602,21.427h1.859
			c0.56,0,1.049-0.07,1.466-0.21c0.417-0.14,0.76-0.334,1.029-0.581c0.269-0.247,0.47-0.54,0.603-0.88s0.199-0.712,0.199-1.118
			c0-0.811-0.267-1.435-0.802-1.87c-0.535-0.435-1.352-0.653-2.451-0.653h-1.903V21.427z"/>
		<path fill="#293246" d="M112.838,13.815v2.368h-7.103v4.437h5.598v2.29h-5.598v4.525h7.103v2.379h-10.091V13.815H112.838z"/>
		<path fill="#293246" d="M128.571,21.814c0,1.173-0.196,2.25-0.586,3.231c-0.391,0.981-0.94,1.826-1.649,2.534
			c-0.708,0.708-1.56,1.258-2.556,1.649c-0.996,0.391-2.102,0.586-3.319,0.586h-6.096V13.815h6.096c1.217,0,2.323,0.197,3.319,0.592
			c0.996,0.395,1.848,0.944,2.556,1.649c0.708,0.704,1.258,1.547,1.649,2.528C128.376,19.564,128.571,20.641,128.571,21.814z
			 M125.518,21.814c0-0.878-0.116-1.665-0.349-2.362c-0.232-0.697-0.568-1.287-1.007-1.77c-0.439-0.483-0.97-0.854-1.593-1.112
			c-0.623-0.258-1.326-0.387-2.108-0.387h-3.109v11.263h3.109c0.782,0,1.484-0.129,2.108-0.387c0.623-0.258,1.154-0.629,1.593-1.112
			c0.439-0.483,0.775-1.073,1.007-1.77C125.402,23.479,125.518,22.692,125.518,21.814z"/>
	</g>
</g>
</svg>
