<?xml version="1.0" encoding="utf-8"?>
<!-- Generator: Adobe Illustrator 17.0.0, SVG Export Plug-In . SVG Version: 6.00 Build 0)  -->
<!DOCTYPE svg PUBLIC "-//W3C//DTD SVG 1.1//EN" "http://www.w3.org/Graphics/SVG/1.1/DTD/svg11.dtd">
<svg version="1.1" id="Layer_1" xmlns="http://www.w3.org/2000/svg" xmlns:xlink="http://www.w3.org/1999/xlink" x="0px" y="0px"
	 width="77px" height="72px" viewBox="0 0 77 72" enable-background="new 0 0 77 72" xml:space="preserve">
<g>
	<path fill="none" stroke="#302F2F" stroke-width="0.75" stroke-miterlimit="10" d="M68.437,13.407l-1.571,1.571
		c-0.241,1.139-0.803,2.185-1.645,3.027c-0.141,0.14-0.213,0.325-0.213,0.51c0,0.184,0.071,0.37,0.213,0.509
		c0.281,0.282,0.739,0.282,1.02,0c1.421-1.421,2.203-3.31,2.203-5.32C68.444,13.606,68.441,13.507,68.437,13.407z"/>
	<path fill="none" stroke="#302F2F" stroke-width="0.75" stroke-miterlimit="10" d="M68.451,21.431
		c2.065-2.063,3.199-4.807,3.199-7.724c0-1.056-0.151-2.087-0.438-3.074l-1.19,1.19c0.124,0.613,0.186,1.243,0.186,1.884
		c0,2.533-0.986,4.913-2.776,6.704c-0.14,0.14-0.211,0.326-0.211,0.509c0,0.185,0.071,0.37,0.211,0.511
		C67.713,21.711,68.17,21.711,68.451,21.431z"/>
	<path fill="none" stroke="#302F2F" stroke-width="0.75" stroke-miterlimit="10" d="M52.479,18.03l1.04-1.04
		c-0.625-0.971-0.964-2.099-0.964-3.282c0-1.624,0.632-3.149,1.78-4.298c0.283-0.281,0.283-0.739,0-1.02
		c-0.281-0.282-0.738-0.282-1.019,0c-1.421,1.421-2.204,3.309-2.204,5.318C51.112,15.277,51.592,16.773,52.479,18.03z"/>
	<path fill="none" stroke="#302F2F" stroke-width="0.75" stroke-miterlimit="10" d="M51.188,19.321
		c-1.194-1.618-1.839-3.566-1.839-5.615c0-2.531,0.986-4.912,2.777-6.703c0.281-0.282,0.281-0.738,0-1.02
		c-0.282-0.282-0.739-0.282-1.021,0c-2.064,2.063-3.199,4.806-3.199,7.723c0,2.435,0.793,4.746,2.253,6.643L51.188,19.321z"/>
	<path fill="none" stroke="#302F2F" stroke-width="0.75" stroke-miterlimit="10" d="M54.769,15.741l1.103-1.104
		c-0.074-0.247-0.113-0.505-0.113-0.77c0-0.715,0.279-1.388,0.787-1.895c0.28-0.281,0.28-0.737,0-1.019
		c-0.284-0.281-0.74-0.281-1.021,0c-0.779,0.779-1.207,1.814-1.207,2.913C54.318,14.529,54.476,15.167,54.769,15.741z"/>
	<polygon fill="none" stroke="#302F2F" stroke-width="0.75" stroke-miterlimit="10" points="70.777,63.162 61.718,54.102 
		61.718,54.102 57.743,50.128 57.743,50.128 51.634,44.02 43.615,36 75.177,4.438 71.739,1 59.509,13.229 59.509,13.229 
		59.161,13.577 56.711,16.028 56.711,16.028 55.79,16.948 55.79,16.948 53.687,19.051 53.553,19.185 53.553,19.185 52.217,20.522 
		52.217,20.522 51.217,21.522 51.217,21.522 40.177,32.561 8.614,1 5.176,4.438 36.738,36 24.674,48.065 22.985,49.753 
		22.985,49.753 21.141,51.597 21.141,51.597 8.837,63.901 8.837,63.901 5.176,67.561 8.614,71 13.386,66.228 13.386,66.228 
		24.46,55.156 24.46,55.156 33.881,45.734 37.033,42.581 37.033,42.581 40.177,39.439 43.32,42.581 43.32,42.581 45.089,44.351 
		71.739,71 75.177,67.561 70.777,63.162 	"/>
	<path fill="none" stroke="#302F2F" stroke-width="0.75" stroke-miterlimit="10" d="M73.569,42.581H61.646V25.899
		c0-0.589-0.276-1.106-0.701-1.448v-3.552l-2.336,2.336v1.216c-0.424,0.342-0.701,0.859-0.701,1.448v16.682h-5.482l6.166,6.166
		h2.658c0.258,0,0.467,0.208,0.467,0.467v2.659l2.378,2.379v-5.037c0-0.259,0.209-0.467,0.468-0.467h3.04
		c0.258,0,0.467,0.208,0.467,0.467v6.432c0,0.258-0.208,0.468-0.467,0.468h-1.645l7.047,7.047h0.564
		c1.463,0,2.647-1.186,2.647-2.648V45.229C76.216,43.768,75.032,42.581,73.569,42.581z"/>
	<path fill="none" stroke="#302F2F" stroke-width="0.75" stroke-miterlimit="10" d="M27.927,42.581H3.432
		c-1.463,0-2.649,1.187-2.649,2.647v15.285c0,1.462,1.186,2.648,2.649,2.648h3.916L27.927,42.581z M13.843,49.628
		c1.547,0,2.801,1.255,2.801,2.802c0,1.548-1.255,2.802-2.801,2.802c-1.548,0-2.802-1.254-2.802-2.802
		C11.041,50.883,12.295,49.628,13.843,49.628z"/>
	<path fill="none" stroke="#302F2F" stroke-width="0.75" stroke-miterlimit="10" d="M52.17,56.114c-0.258,0-0.468-0.21-0.468-0.468
		v-2.453L41.09,42.581h-1.828l-20.579,20.58h40.684c-0.017,0.106-0.033,0.214-0.033,0.326v0.547c0,1.211,0.982,2.193,2.193,2.193
		h3.209L54.623,56.114H52.17z"/>
	<path fill="none" stroke="#302F2F" stroke-width="0.75" stroke-miterlimit="10" d="M17.659,64.186l-2.036,2.035
		C16.714,66.147,17.584,65.277,17.659,64.186z"/>
</g>
</svg>
