<?xml version="1.0" encoding="utf-8"?>
<!-- Generator: Adobe Illustrator 17.0.0, SVG Export Plug-In . SVG Version: 6.00 Build 0)  -->
<!DOCTYPE svg PUBLIC "-//W3C//DTD SVG 1.1//EN" "http://www.w3.org/Graphics/SVG/1.1/DTD/svg11.dtd">
<svg version="1.1" id="Layer_1" xmlns="http://www.w3.org/2000/svg" xmlns:xlink="http://www.w3.org/1999/xlink" x="0px" y="0px"
	 width="82px" height="82px" viewBox="0 0 82 82" enable-background="new 0 0 82 82" xml:space="preserve">
<path fill="none" stroke="#302F2F" stroke-miterlimit="10" d="M66.201,59.981c5.099-6.445,7.882-14.396,7.882-22.611
	c0-20.153-16.396-36.544-36.545-36.544c-20.149,0-36.54,16.392-36.54,36.544c0,20.15,16.391,36.542,36.54,36.542
	c5.201,0,10.246-1.096,15.019-3.261l27.668,10.028L66.201,59.981z M38.548,56.335c-2.158,0-3.91-1.751-3.91-3.909
	c0-2.158,1.752-3.909,3.91-3.909s3.909,1.751,3.909,3.909C42.458,54.585,40.707,56.335,38.548,56.335z M41.614,40.884
	c0,2.155-0.471,3.902-3.065,3.902c-2.599,0-3.068-1.747-3.068-3.902l-1.634-17.772c0-2.155,2.104-3.902,4.702-3.902
	c2.595,0,4.701,1.747,4.701,3.902L41.614,40.884z"/>
</svg>
