<?xml version="1.0" encoding="utf-8"?>
<!-- Generator: Adobe Illustrator 17.0.0, SVG Export Plug-In . SVG Version: 6.00 Build 0)  -->
<!DOCTYPE svg PUBLIC "-//W3C//DTD SVG 1.1//EN" "http://www.w3.org/Graphics/SVG/1.1/DTD/svg11.dtd">
<svg version="1.1" id="Layer_1" xmlns="http://www.w3.org/2000/svg" xmlns:xlink="http://www.w3.org/1999/xlink" x="0px" y="0px"
	 width="58px" height="98px" viewBox="0 0 58 98" enable-background="new 0 0 58 98" xml:space="preserve">
<g>
	<path fill="none" stroke="#302F2F" stroke-miterlimit="10" d="M23.369,0.626c-12.394,0-22.438,10.045-22.438,22.434
		c0,7.689,3.874,14.467,9.773,18.506c1.008-1.537,3.221-4.969,3.346-5.106c-4.241-2.948-7.02-7.844-7.02-13.397
		c0-9.022,7.315-16.334,16.339-16.334c9.02,0,16.336,7.312,16.336,16.334c0,5.824-3.062,10.916-7.652,13.803
		c0.225,0.254,2.924,3.93,3.512,4.569c0.088,0.096,0.162,0.194,0.232,0.293c6.029-4.021,10.006-10.878,10.006-18.667
		C45.803,10.671,35.759,0.626,23.369,0.626z"/>
	<path fill="none" stroke="#302F2F" stroke-miterlimit="10" d="M56.881,60.913c0-5.035-1.801-7.199-5.037-7.199
		c-2.768,0-2.936,3.125-3.511,2.623c-0.267-0.236-0.448-2.44-0.448-4.062c0-1.617-1.733-3.619-3.939-3.934
		c-1.889-0.27-3.528,0.249-4.427,1.689c-0.667,1.07-0.431,1.482-0.901,1.482c-0.475,0-0.645-0.615-1.082-2.372
		c-0.346-1.396-1.754-2.716-4.048-2.716c-0.111,0-0.216,0.004-0.321,0.008c-0.404-0.001-0.551,0.028-0.768,0.098
		c-0.819,0.26-0.979,0.148-1.626,0.527c-0.64,0.428-1.014,1.064-1.242,1.885c-0.399,1.432-1.241,2.834-1.442,2.163
		c-0.07-0.232-0.17-2.774-0.267-6.061c0.05-1.859-0.046-3.605-0.057-5.407c-0.002-0.292-0.07-0.572-0.044-0.85
		c-0.021,0.006-0.042,0.014-0.063,0.018c-0.043-1.743-0.082-3.442-0.113-4.934v-9.994c0-2.42-1.963-4.381-4.381-4.381
		c-2.421,0-4.382,1.961-4.382,4.381l-0.031,8.695l-0.001-0.001c0,0.091,0.001,0.187,0.001,0.28v1.484h0.005
		c0.005,1.35,0.01,2.85,0.015,4.391c-0.015-0.005-0.03-0.01-0.046-0.015c0,0.007,0.001,0.013,0.001,0.021
		c0,1.738,0.03,5.902,0.008,6.273c0.019,0.005,0.079,6.001,0.079,6.001c0,2.23-0.237,5.837-1.248,5.837
		c-0.535,0,0.402-3.399-0.988-3.399c-2.302,0-6.975,4.229-6.975,11.428C9.6,75.94,11.893,79.56,16.076,83
		c3.949,3.246,6.615,3.915,6.615,6.047c0,2.521,1.608,8.327,14.449,8.327c11.782,0,13.623-3.391,13.623-6.449
		c0-3.059,2.7-4.577,4.859-8.173C57.784,79.153,56.881,65.95,56.881,60.913z"/>
</g>
</svg>
