<?xml version="1.0" encoding="utf-8"?>
<!-- Generator: Adobe Illustrator 17.0.0, SVG Export Plug-In . SVG Version: 6.00 Build 0)  -->
<!DOCTYPE svg PUBLIC "-//W3C//DTD SVG 1.1//EN" "http://www.w3.org/Graphics/SVG/1.1/DTD/svg11.dtd">
<svg version="1.1" id="Layer_1" xmlns="http://www.w3.org/2000/svg" xmlns:xlink="http://www.w3.org/1999/xlink" x="0px" y="0px"
	 width="41px" height="41px" viewBox="0 0 41 41" enable-background="new 0 0 41 41" xml:space="preserve">
<path fill="#293246" d="M11.985,19.646l-2.164-0.194c-0.014,0.158-0.025,0.317-0.033,0.478l2.171,0.102
	C11.965,19.902,11.973,19.776,11.985,19.646"/>
<path fill="#293246" d="M12.089,18.887L9.95,18.5c-0.028,0.157-0.052,0.314-0.075,0.474l2.154,0.293
	C12.045,19.14,12.065,19.012,12.089,18.887"/>
<path fill="#293246" d="M11.983,21.183L9.818,21.37c0.015,0.161,0.031,0.322,0.052,0.479l2.155-0.284
	C12.007,21.438,11.994,21.309,11.983,21.183"/>
<path fill="#293246" d="M11.95,20.432v-0.019l-2.172,0.019c0,0.155,0.003,0.307,0.01,0.459l2.171-0.092
	C11.951,20.678,11.95,20.554,11.95,20.432"/>
<path fill="#293246" d="M12.26,18.141l-2.094-0.581c-0.041,0.155-0.081,0.311-0.117,0.467l2.118,0.484
	C12.195,18.386,12.226,18.264,12.26,18.141"/>
<path fill="#293246" d="M12.8,16.712l-1.955-0.947c-0.07,0.143-0.136,0.289-0.2,0.437l1.996,0.856
	C12.691,16.94,12.744,16.825,12.8,16.712"/>
<path fill="#293246" d="M12.497,17.412l-2.032-0.766c-0.056,0.15-0.112,0.3-0.16,0.453l2.064,0.675
	C12.41,17.654,12.453,17.533,12.497,17.412"/>
<path fill="#293246" d="M13.149,24.803l-1.865,1.112c0.081,0.137,0.167,0.274,0.255,0.409l1.815-1.195
	C13.283,25.022,13.215,24.912,13.149,24.803"/>
<path fill="#293246" d="M12.251,22.689l-2.096,0.572c0.042,0.156,0.089,0.311,0.137,0.464l2.067-0.668
	C12.322,22.935,12.284,22.814,12.251,22.689"/>
<path fill="#293246" d="M13.572,25.445l-1.759,1.276c0.093,0.129,0.191,0.256,0.29,0.382l1.701-1.352
	C13.724,25.651,13.647,25.548,13.572,25.445"/>
<path fill="#293246" d="M14.05,26.045l-1.639,1.427c0.105,0.121,0.212,0.239,0.323,0.354l1.576-1.496
	C14.221,26.237,14.133,26.142,14.05,26.045"/>
<path fill="#293246" d="M13.163,16.038l-1.861-1.119c-0.083,0.137-0.163,0.276-0.239,0.417l1.912,1.034
	C13.035,16.259,13.098,16.147,13.163,16.038"/>
<path fill="#293246" d="M12.788,24.126l-1.959,0.941c0.068,0.145,0.142,0.287,0.217,0.428l1.915-1.025
	C12.901,24.356,12.842,24.243,12.788,24.126"/>
<path fill="#293246" d="M12.487,23.421l-2.036,0.756c0.056,0.153,0.115,0.304,0.178,0.451l1.999-0.851
	C12.578,23.658,12.531,23.54,12.487,23.421"/>
<path fill="#293246" d="M20.991,9.72c-0.159-0.007-0.319-0.01-0.48-0.01l-0.003,3.475c0.128,0.001,0.255,0.003,0.384,0.01
	L20.991,9.72z"/>
<path fill="#293246" d="M20.123,11.89L20.031,9.72c-0.162,0.007-0.322,0.018-0.482,0.032l0.192,2.164
	C19.867,11.905,19.995,11.895,20.123,11.89"/>
<path fill="#293246" d="M14.579,26.601l-1.504,1.569c0.115,0.109,0.234,0.219,0.354,0.325l1.432-1.633
	C14.765,26.776,14.671,26.689,14.579,26.601"/>
<path fill="#293246" d="M13.588,15.399l-1.755-1.281c-0.095,0.131-0.186,0.262-0.276,0.395l1.812,1.202
	C13.439,15.608,13.511,15.503,13.588,15.399"/>
<path fill="#293246" d="M21.948,9.807c-0.157-0.022-0.317-0.039-0.479-0.053l-0.193,2.162c0.128,0.012,0.254,0.026,0.38,0.044
	L21.948,9.807z"/>
<path fill="#293246" d="M23.148,12.3l0.675-2.064c-0.154-0.05-0.308-0.096-0.462-0.139l-0.578,2.094
	C22.907,12.225,23.029,12.26,23.148,12.3"/>
<path fill="#293246" d="M26.408,14.252l1.503-1.57c-0.117-0.111-0.235-0.219-0.356-0.324l-1.43,1.634
	C26.223,14.077,26.315,14.163,26.408,14.252"/>
<path fill="#293246" d="M23.867,12.57l0.855-1.996c-0.147-0.064-0.295-0.123-0.444-0.179l-0.767,2.031
	C23.63,12.472,23.749,12.52,23.867,12.57"/>
<path fill="#293246" d="M22.894,9.979c-0.155-0.038-0.312-0.069-0.472-0.097l-0.388,2.137c0.128,0.022,0.252,0.048,0.376,0.076
	L22.894,9.979z"/>
<path fill="#293246" d="M14.598,14.246l-1.5-1.571c-0.116,0.111-0.23,0.224-0.339,0.339l1.569,1.502
	C14.414,14.425,14.505,14.334,14.598,14.246"/>
<path fill="#293246" d="M15.175,13.743l-1.353-1.7c-0.126,0.1-0.249,0.203-0.37,0.308l1.429,1.638
	C14.977,13.903,15.075,13.821,15.175,13.743"/>
<path fill="#293246" d="M14.066,14.802l-1.633-1.434c-0.107,0.121-0.208,0.243-0.308,0.369l1.694,1.359
	C13.9,14.995,13.981,14.897,14.066,14.802"/>
<path fill="#293246" d="M18.606,12.091l-0.478-2.118c-0.157,0.036-0.314,0.074-0.469,0.117l0.578,2.094
	C18.358,12.151,18.481,12.12,18.606,12.091"/>
<path fill="#293246" d="M17.867,12.294l-0.668-2.066c-0.154,0.05-0.306,0.102-0.458,0.159l0.764,2.033
	C17.624,12.376,17.745,12.334,17.867,12.294"/>
<path fill="#293246" d="M19.36,11.957l-0.286-2.152c-0.161,0.021-0.319,0.045-0.477,0.074l0.386,2.138
	C19.106,11.994,19.234,11.975,19.36,11.957"/>
<path fill="#293246" d="M12.083,21.943l-2.139,0.381c0.027,0.158,0.06,0.316,0.095,0.472l2.119-0.479
	C12.13,22.192,12.105,22.069,12.083,21.943"/>
<path fill="#293246" d="M28.915,18.903l2.138-0.381c-0.027-0.16-0.06-0.318-0.096-0.474l-2.118,0.483
	C28.866,18.653,28.891,18.778,28.915,18.903"/>
<path fill="#293246" d="M28.508,17.428l2.034-0.765c-0.057-0.15-0.116-0.3-0.18-0.447l-1.996,0.855
	C28.416,17.19,28.462,17.308,28.508,17.428"/>
<path fill="#293246" d="M29.016,19.665l2.164-0.192c-0.012-0.16-0.031-0.318-0.052-0.475l-2.152,0.284
	C28.991,19.408,29.006,19.536,29.016,19.665"/>
<path fill="#293246" d="M28.745,18.157l2.095-0.576c-0.044-0.156-0.09-0.31-0.138-0.464l-2.067,0.675
	C28.676,17.912,28.711,18.035,28.745,18.157"/>
<path fill="#293246" d="M29.05,20.432v0.038l2.172-0.038c0-0.161-0.003-0.322-0.011-0.479l-2.17,0.096
	C29.048,20.175,29.05,20.304,29.05,20.432"/>
<path fill="#293246" d="M28.909,21.994l2.137,0.392c0.028-0.157,0.052-0.313,0.074-0.472l-2.15-0.301
	C28.952,21.742,28.93,21.869,28.909,21.994"/>
<path fill="#293246" d="M29.013,21.234l2.165,0.199c0.013-0.159,0.025-0.317,0.034-0.477l-2.17-0.108
	C29.035,20.978,29.026,21.107,29.013,21.234"/>
<path fill="#293246" d="M20.5,0.147C9.277,0.147,0.147,9.276,0.147,20.5c0,11.223,9.13,20.353,20.353,20.353
	c11.223,0,20.353-9.13,20.353-20.353C40.853,9.276,31.723,0.147,20.5,0.147 M20.5,40.419c-10.982,0-19.919-8.936-19.919-19.919
	C0.581,9.517,9.518,0.581,20.5,0.581S40.42,9.516,40.42,20.5C40.42,31.483,31.483,40.419,20.5,40.419"/>
<path fill="#293246" d="M28.206,16.722l1.958-0.942c-0.073-0.146-0.144-0.29-0.221-0.43l-1.912,1.029
	C28.091,16.492,28.15,16.606,28.206,16.722"/>
<path fill="#293246" d="M28.735,22.74l2.093,0.584c0.043-0.154,0.082-0.308,0.118-0.462l-2.115-0.497
	C28.802,22.492,28.77,22.617,28.735,22.74"/>
<path fill="#293246" d="M26.679,14.522c0.089,0.094,0.175,0.189,0.261,0.285l1.633-1.431c-0.105-0.12-0.213-0.239-0.323-0.354
	L26.679,14.522z"/>
<path fill="#293246" d="M20.5,36.792c-8.983,0-16.292-7.309-16.292-16.292c0-8.983,7.309-16.293,16.292-16.293
	c8.983,0,16.292,7.31,16.292,16.293C36.792,29.483,29.483,36.792,20.5,36.792 M20.5,6.6c-7.665,0-13.899,6.236-13.899,13.9
	S12.835,34.4,20.5,34.4c7.664,0,13.899-6.236,13.899-13.9S28.164,6.6,20.5,6.6"/>
<path fill="#293246" d="M27.418,15.405l1.757-1.276c-0.094-0.13-0.191-0.258-0.292-0.383l-1.696,1.356
	C27.266,15.2,27.343,15.301,27.418,15.405"/>
<path fill="#293246" d="M27.842,16.047l1.864-1.117c-0.084-0.138-0.17-0.274-0.258-0.408l-1.811,1.201
	C27.708,15.83,27.776,15.937,27.842,16.047"/>
<path fill="#293246" d="M15.008,11.221l1.113,1.865c0.11-0.066,0.221-0.129,0.334-0.191l-1.029-1.912
	C15.285,11.06,15.145,11.14,15.008,11.221"/>
<path fill="#293246" d="M27.187,12.049c-0.124-0.099-0.252-0.196-0.381-0.292l-1.277,1.758c0.102,0.076,0.203,0.154,0.304,0.234
	L27.187,12.049z"/>
<path fill="#293246" d="M25.158,10.772l-0.945,1.957c0.116,0.054,0.23,0.113,0.34,0.173l1.032-1.913
	C25.445,10.914,25.302,10.841,25.158,10.772"/>
<path fill="#293246" d="M28.497,23.468l2.032,0.769c0.056-0.147,0.109-0.298,0.16-0.449l-2.064-0.684
	C28.584,23.226,28.542,23.348,28.497,23.468"/>
<path fill="#293246" d="M14.203,11.751l1.278,1.759c0.104-0.076,0.207-0.149,0.314-0.22L14.6,11.477
	C14.466,11.566,14.333,11.657,14.203,11.751"/>
<path fill="#293246" d="M16.294,10.566c-0.148,0.064-0.294,0.13-0.439,0.2l0.943,1.956c0.116-0.055,0.232-0.108,0.349-0.159
	L16.294,10.566z"/>
<path fill="#293246" d="M13.796,28.802c0.124,0.1,0.25,0.195,0.38,0.29l1.288-1.748c-0.104-0.077-0.207-0.155-0.308-0.236
	L13.796,28.802z"/>
<path fill="#293246" d="M26.004,11.228l-1.118,1.863c0.11,0.067,0.22,0.136,0.326,0.206l1.198-1.813
	C26.276,11.395,26.14,11.31,26.004,11.228"/>
<path fill="#293246" d="M25.811,27.133l1.35,1.703c0.126-0.1,0.249-0.203,0.372-0.31l-1.429-1.639
	C26.009,26.972,25.911,27.054,25.811,27.133"/>
<path fill="#293246" d="M27.404,25.48l1.752,1.283c0.094-0.128,0.185-0.258,0.275-0.391l-1.807-1.208
	C27.553,25.272,27.479,25.376,27.404,25.48"/>
<path fill="#293246" d="M28.194,24.169l1.952,0.95c0.071-0.144,0.136-0.288,0.2-0.434l-1.992-0.864
	C28.302,23.938,28.25,24.054,28.194,24.169"/>
<path fill="#293246" d="M27.828,24.84l1.859,1.123c0.082-0.137,0.163-0.277,0.24-0.418l-1.911-1.036
	C27.957,24.622,27.894,24.733,27.828,24.84"/>
<path fill="#293246" d="M26.921,26.076l1.632,1.435c0.106-0.121,0.211-0.242,0.308-0.367l-1.693-1.36
	C27.087,25.883,27.006,25.981,26.921,26.076"/>
<path fill="#293246" d="M26.391,26.629l1.497,1.575c0.116-0.111,0.23-0.223,0.342-0.339l-1.57-1.504
	C26.574,26.451,26.482,26.542,26.391,26.629"/>
<path fill="#293246" d="M18.008,17.347c0.205,0,0.402,0.03,0.588,0.089c0.185,0.059,0.35,0.149,0.494,0.269
	c0.143,0.12,0.256,0.271,0.341,0.452c0.082,0.182,0.125,0.394,0.125,0.637c0,0.204-0.032,0.392-0.094,0.566
	c-0.064,0.173-0.147,0.34-0.253,0.5c-0.107,0.158-0.231,0.314-0.372,0.466c-0.141,0.15-0.288,0.304-0.444,0.462l-1.684,1.72
	c0.081-0.021,0.165-0.036,0.253-0.046c0.087-0.01,0.176-0.015,0.263-0.015h2.325c0.041,0,0.072,0.012,0.095,0.036
	c0.023,0.024,0.033,0.055,0.033,0.094v0.213h-3.472v-0.13c0-0.027,0.006-0.056,0.02-0.085c0.014-0.03,0.033-0.053,0.055-0.075
	l1.837-1.858c0.153-0.155,0.294-0.305,0.423-0.451c0.129-0.144,0.241-0.29,0.337-0.437c0.094-0.148,0.168-0.299,0.222-0.453
	c0.053-0.155,0.081-0.32,0.081-0.495c0-0.198-0.034-0.369-0.1-0.515c-0.066-0.146-0.152-0.265-0.262-0.359
	c-0.109-0.095-0.235-0.164-0.381-0.209c-0.144-0.046-0.294-0.068-0.449-0.068c-0.17,0-0.327,0.025-0.47,0.077
	c-0.144,0.053-0.271,0.125-0.381,0.217c-0.108,0.094-0.201,0.203-0.273,0.332c-0.072,0.127-0.122,0.268-0.151,0.419
	c-0.017,0.058-0.041,0.094-0.071,0.112c-0.028,0.017-0.068,0.024-0.119,0.018l-0.185-0.031c0.032-0.231,0.095-0.436,0.189-0.618
	c0.094-0.178,0.213-0.331,0.358-0.456c0.144-0.123,0.311-0.218,0.502-0.283C17.581,17.378,17.787,17.347,18.008,17.347"/>
<path fill="#293246" d="M20.285,22.509h1.237v-4.367c0-0.087,0.004-0.178,0.011-0.274l-1.185,1.053
	c-0.038,0.031-0.074,0.041-0.108,0.035c-0.035-0.008-0.063-0.024-0.083-0.046l-0.11-0.151l1.556-1.374h0.285v5.125h1.176v0.282
	h-2.778V22.509z"/>
<path fill="#293246" d="M23.196,18.476c0-0.157,0.03-0.305,0.09-0.443c0.06-0.137,0.141-0.258,0.242-0.362
	c0.104-0.102,0.225-0.182,0.363-0.241c0.14-0.058,0.289-0.087,0.45-0.087c0.16,0,0.31,0.029,0.451,0.087
	c0.141,0.059,0.262,0.139,0.366,0.241c0.102,0.104,0.184,0.225,0.242,0.362c0.061,0.137,0.09,0.286,0.09,0.443
	c0,0.157-0.029,0.304-0.09,0.443c-0.059,0.135-0.14,0.256-0.242,0.359c-0.103,0.102-0.225,0.184-0.366,0.242
	c-0.141,0.061-0.29,0.091-0.451,0.091c-0.161,0-0.31-0.03-0.45-0.091c-0.138-0.059-0.259-0.14-0.363-0.242
	c-0.102-0.103-0.183-0.224-0.242-0.359C23.226,18.78,23.196,18.633,23.196,18.476 M23.469,18.476c0,0.122,0.024,0.236,0.069,0.343
	c0.046,0.107,0.107,0.199,0.185,0.277c0.076,0.078,0.168,0.142,0.276,0.186c0.105,0.046,0.22,0.068,0.341,0.068
	c0.121,0,0.235-0.022,0.341-0.068c0.107-0.045,0.2-0.108,0.278-0.186c0.079-0.079,0.142-0.171,0.187-0.277
	c0.046-0.107,0.068-0.221,0.068-0.343c0-0.121-0.023-0.235-0.068-0.342c-0.046-0.107-0.108-0.2-0.187-0.278
	c-0.078-0.081-0.171-0.144-0.278-0.19c-0.106-0.046-0.22-0.068-0.341-0.068c-0.122,0-0.236,0.023-0.341,0.068
	c-0.108,0.045-0.2,0.109-0.276,0.19c-0.079,0.078-0.139,0.171-0.185,0.278C23.493,18.24,23.469,18.355,23.469,18.476"/>
<path fill="#293246" d="M27.116,20.603c-0.009,0.009-0.016,0.016-0.025,0.023c-0.008,0.005-0.018,0.008-0.031,0.008
	c-0.017,0-0.039-0.011-0.069-0.035c-0.029-0.021-0.066-0.046-0.116-0.073c-0.049-0.029-0.109-0.053-0.183-0.075
	c-0.074-0.024-0.164-0.035-0.268-0.035c-0.145,0-0.275,0.026-0.387,0.079c-0.112,0.052-0.208,0.124-0.286,0.22
	c-0.077,0.096-0.136,0.214-0.176,0.35c-0.04,0.137-0.06,0.292-0.06,0.461c0,0.178,0.021,0.336,0.064,0.472
	c0.04,0.137,0.1,0.252,0.175,0.346c0.075,0.095,0.168,0.166,0.276,0.215c0.108,0.049,0.229,0.073,0.361,0.073
	c0.122,0,0.223-0.015,0.306-0.044c0.081-0.027,0.149-0.059,0.202-0.093c0.053-0.034,0.095-0.066,0.126-0.094
	c0.031-0.029,0.056-0.044,0.075-0.044c0.021,0,0.038,0.009,0.051,0.026l0.063,0.081c-0.038,0.051-0.087,0.099-0.146,0.143
	c-0.06,0.043-0.126,0.081-0.199,0.115c-0.077,0.032-0.156,0.057-0.244,0.075c-0.086,0.017-0.178,0.024-0.272,0.024
	c-0.159,0-0.306-0.028-0.44-0.087c-0.132-0.057-0.247-0.143-0.342-0.254c-0.095-0.11-0.17-0.246-0.223-0.407
	c-0.053-0.161-0.08-0.343-0.08-0.549c0-0.192,0.025-0.367,0.075-0.527c0.051-0.159,0.126-0.295,0.223-0.411
	c0.099-0.115,0.218-0.203,0.36-0.268c0.14-0.062,0.304-0.094,0.485-0.094c0.164,0,0.309,0.025,0.437,0.079
	c0.127,0.052,0.236,0.122,0.332,0.213L27.116,20.603z"/>
</svg>
